M48
;DRILL file {KiCad 4.0.7} date 2018 May 07, Monday 10:52:16
;FORMAT={-:-/ absolute / metric / decimal}
FMAT,2
METRIC,TZ
T1C0.700
T2C0.762
T3C0.800
T4C0.950
T5C1.000
T6C1.300
T7C1.524
%
G90
G05
M71
T1
X134.404Y-74.765
X136.944Y-72.225
X139.484Y-74.765
T2
X173.228Y-79.629
X173.228Y-82.169
X173.228Y-84.709
X173.228Y-87.249
X173.228Y-89.789
X173.228Y-92.329
X173.228Y-94.869
X173.228Y-97.409
X173.228Y-99.949
X173.228Y-102.489
X173.228Y-105.029
X193.548Y-79.629
X193.548Y-82.169
X193.548Y-84.709
X193.548Y-87.249
X193.548Y-89.789
X193.548Y-92.329
X193.548Y-94.869
X193.548Y-97.409
X193.548Y-99.949
X193.548Y-102.489
X193.548Y-105.029
T3
X162.306Y-83.058
X162.306Y-93.218
X168.702Y-62.027
X168.813Y-66.665
X178.862Y-62.027
X178.973Y-66.665
T4
X154.953Y-53.81
X154.953Y-56.35
X154.953Y-58.89
X154.953Y-61.43
T5
X131.527Y-83.612
X131.527Y-95.612
T6
X119.277Y-95.662
X119.327Y-83.612
X133.477Y-89.662
T7
X141.707Y-84.62
X141.707Y-89.7
X141.707Y-94.78
X148.844Y-103.632
X153.924Y-103.632
T0
M30
