G04 #@! TF.FileFunction,Legend,Top*
%FSLAX46Y46*%
G04 Gerber Fmt 4.6, Leading zero omitted, Abs format (unit mm)*
G04 Created by KiCad (PCBNEW 4.0.7) date 2018 May 07, Monday 10:52:03*
%MOMM*%
%LPD*%
G01*
G04 APERTURE LIST*
%ADD10C,0.100000*%
%ADD11C,0.300000*%
%ADD12C,0.150000*%
%ADD13C,0.120000*%
%ADD14C,0.010000*%
G04 APERTURE END LIST*
D10*
D11*
X118410856Y-111275571D02*
X118410856Y-109775571D01*
X118767999Y-109775571D01*
X118982284Y-109847000D01*
X119125142Y-109989857D01*
X119196570Y-110132714D01*
X119267999Y-110418429D01*
X119267999Y-110632714D01*
X119196570Y-110918429D01*
X119125142Y-111061286D01*
X118982284Y-111204143D01*
X118767999Y-111275571D01*
X118410856Y-111275571D01*
X119910856Y-110489857D02*
X120410856Y-110489857D01*
X120625142Y-111275571D02*
X119910856Y-111275571D01*
X119910856Y-109775571D01*
X120625142Y-109775571D01*
X121196570Y-111204143D02*
X121410856Y-111275571D01*
X121767999Y-111275571D01*
X121910856Y-111204143D01*
X121982285Y-111132714D01*
X122053713Y-110989857D01*
X122053713Y-110847000D01*
X121982285Y-110704143D01*
X121910856Y-110632714D01*
X121767999Y-110561286D01*
X121482285Y-110489857D01*
X121339427Y-110418429D01*
X121267999Y-110347000D01*
X121196570Y-110204143D01*
X121196570Y-110061286D01*
X121267999Y-109918429D01*
X121339427Y-109847000D01*
X121482285Y-109775571D01*
X121839427Y-109775571D01*
X122053713Y-109847000D01*
X122696570Y-111275571D02*
X122696570Y-109775571D01*
X124196570Y-109847000D02*
X124053713Y-109775571D01*
X123839427Y-109775571D01*
X123625142Y-109847000D01*
X123482284Y-109989857D01*
X123410856Y-110132714D01*
X123339427Y-110418429D01*
X123339427Y-110632714D01*
X123410856Y-110918429D01*
X123482284Y-111061286D01*
X123625142Y-111204143D01*
X123839427Y-111275571D01*
X123982284Y-111275571D01*
X124196570Y-111204143D01*
X124267999Y-111132714D01*
X124267999Y-110632714D01*
X123982284Y-110632714D01*
X124910856Y-111275571D02*
X124910856Y-109775571D01*
X125767999Y-111275571D01*
X125767999Y-109775571D01*
X126482285Y-110489857D02*
X126982285Y-110489857D01*
X127196571Y-111275571D02*
X126482285Y-111275571D01*
X126482285Y-109775571D01*
X127196571Y-109775571D01*
X127839428Y-111275571D02*
X127839428Y-109775571D01*
X128196571Y-109775571D01*
X128410856Y-109847000D01*
X128553714Y-109989857D01*
X128625142Y-110132714D01*
X128696571Y-110418429D01*
X128696571Y-110632714D01*
X128625142Y-110918429D01*
X128553714Y-111061286D01*
X128410856Y-111204143D01*
X128196571Y-111275571D01*
X127839428Y-111275571D01*
X130410856Y-110847000D02*
X131125142Y-110847000D01*
X130267999Y-111275571D02*
X130767999Y-109775571D01*
X131267999Y-111275571D01*
X131767999Y-111275571D02*
X131767999Y-109775571D01*
X132625142Y-111275571D01*
X132625142Y-109775571D01*
X133339428Y-111275571D02*
X133339428Y-109775571D01*
X133696571Y-109775571D01*
X133910856Y-109847000D01*
X134053714Y-109989857D01*
X134125142Y-110132714D01*
X134196571Y-110418429D01*
X134196571Y-110632714D01*
X134125142Y-110918429D01*
X134053714Y-111061286D01*
X133910856Y-111204143D01*
X133696571Y-111275571D01*
X133339428Y-111275571D01*
X136482285Y-110489857D02*
X136696571Y-110561286D01*
X136767999Y-110632714D01*
X136839428Y-110775571D01*
X136839428Y-110989857D01*
X136767999Y-111132714D01*
X136696571Y-111204143D01*
X136553713Y-111275571D01*
X135982285Y-111275571D01*
X135982285Y-109775571D01*
X136482285Y-109775571D01*
X136625142Y-109847000D01*
X136696571Y-109918429D01*
X136767999Y-110061286D01*
X136767999Y-110204143D01*
X136696571Y-110347000D01*
X136625142Y-110418429D01*
X136482285Y-110489857D01*
X135982285Y-110489857D01*
X137482285Y-109775571D02*
X137482285Y-110989857D01*
X137553713Y-111132714D01*
X137625142Y-111204143D01*
X137767999Y-111275571D01*
X138053713Y-111275571D01*
X138196571Y-111204143D01*
X138267999Y-111132714D01*
X138339428Y-110989857D01*
X138339428Y-109775571D01*
X139053714Y-111275571D02*
X139053714Y-109775571D01*
X140482286Y-111275571D02*
X139768000Y-111275571D01*
X139768000Y-109775571D01*
X140768000Y-109775571D02*
X141625143Y-109775571D01*
X141196572Y-111275571D02*
X141196572Y-109775571D01*
X129839427Y-113825571D02*
X129839427Y-112325571D01*
X130553713Y-113825571D02*
X130553713Y-112325571D01*
X131410856Y-113825571D01*
X131410856Y-112325571D01*
X133267999Y-113039857D02*
X133767999Y-113039857D01*
X133982285Y-113825571D02*
X133267999Y-113825571D01*
X133267999Y-112325571D01*
X133982285Y-112325571D01*
X134625142Y-112325571D02*
X134625142Y-113539857D01*
X134696570Y-113682714D01*
X134767999Y-113754143D01*
X134910856Y-113825571D01*
X135196570Y-113825571D01*
X135339428Y-113754143D01*
X135410856Y-113682714D01*
X135482285Y-113539857D01*
X135482285Y-112325571D01*
X137053714Y-113825571D02*
X136553714Y-113111286D01*
X136196571Y-113825571D02*
X136196571Y-112325571D01*
X136767999Y-112325571D01*
X136910857Y-112397000D01*
X136982285Y-112468429D01*
X137053714Y-112611286D01*
X137053714Y-112825571D01*
X136982285Y-112968429D01*
X136910857Y-113039857D01*
X136767999Y-113111286D01*
X136196571Y-113111286D01*
X137982285Y-112325571D02*
X138267999Y-112325571D01*
X138410857Y-112397000D01*
X138553714Y-112539857D01*
X138625142Y-112825571D01*
X138625142Y-113325571D01*
X138553714Y-113611286D01*
X138410857Y-113754143D01*
X138267999Y-113825571D01*
X137982285Y-113825571D01*
X137839428Y-113754143D01*
X137696571Y-113611286D01*
X137625142Y-113325571D01*
X137625142Y-112825571D01*
X137696571Y-112539857D01*
X137839428Y-112397000D01*
X137982285Y-112325571D01*
X139268000Y-113825571D02*
X139268000Y-112325571D01*
X139839428Y-112325571D01*
X139982286Y-112397000D01*
X140053714Y-112468429D01*
X140125143Y-112611286D01*
X140125143Y-112825571D01*
X140053714Y-112968429D01*
X139982286Y-113039857D01*
X139839428Y-113111286D01*
X139268000Y-113111286D01*
X140768000Y-113039857D02*
X141268000Y-113039857D01*
X141482286Y-113825571D02*
X140768000Y-113825571D01*
X140768000Y-112325571D01*
X141482286Y-112325571D01*
D12*
X145517000Y-97320000D02*
X137897000Y-97320000D01*
X145517000Y-82080000D02*
X137897000Y-82080000D01*
X144247000Y-97320000D02*
X144247000Y-82080000D01*
X137897000Y-97320000D02*
X137897000Y-82080000D01*
X145517000Y-97320000D02*
X145517000Y-82080000D01*
X174244000Y-76020000D02*
X192532000Y-76020000D01*
X192532000Y-78613000D02*
X192532000Y-76020000D01*
X174244000Y-78613000D02*
X174244000Y-76020000D01*
X172339000Y-78740000D02*
X194437000Y-78740000D01*
X194437000Y-78740000D02*
X194437000Y-105918000D01*
X194437000Y-105918000D02*
X172339000Y-105791000D01*
X172339000Y-105791000D02*
X172339000Y-78740000D01*
D13*
X155123000Y-62850000D02*
X153533000Y-62850000D01*
X153533000Y-62850000D02*
X153533000Y-52390000D01*
X153533000Y-52390000D02*
X156373000Y-52390000D01*
X156373000Y-52390000D02*
X156373000Y-61600000D01*
X155223000Y-63100000D02*
X156623000Y-63100000D01*
X156623000Y-63100000D02*
X156623000Y-61700000D01*
D12*
X146304000Y-101092000D02*
X156464000Y-101092000D01*
X146304000Y-99822000D02*
X146304000Y-107442000D01*
X146304000Y-107442000D02*
X156464000Y-107442000D01*
X156464000Y-107442000D02*
X156464000Y-99822000D01*
X156464000Y-99822000D02*
X146304000Y-99822000D01*
D13*
X139941084Y-78539902D02*
X140832039Y-79430856D01*
X140832039Y-79430856D02*
X141609856Y-78653039D01*
X141609856Y-78653039D02*
X140718902Y-77762084D01*
X140718674Y-77762371D02*
G75*
G03X139941084Y-78539902I-3774674J2997371D01*
G01*
X163616000Y-84928000D02*
X160996000Y-84928000D01*
X160996000Y-84928000D02*
X160996000Y-91348000D01*
X160996000Y-91348000D02*
X163616000Y-91348000D01*
X163616000Y-91348000D02*
X163616000Y-84928000D01*
X162306000Y-84038000D02*
X162306000Y-84928000D01*
X162306000Y-92238000D02*
X162306000Y-91348000D01*
X170572000Y-60717000D02*
X170572000Y-63337000D01*
X170572000Y-63337000D02*
X176992000Y-63337000D01*
X176992000Y-63337000D02*
X176992000Y-60717000D01*
X176992000Y-60717000D02*
X170572000Y-60717000D01*
X169682000Y-62027000D02*
X170572000Y-62027000D01*
X177882000Y-62027000D02*
X176992000Y-62027000D01*
X170683000Y-65355000D02*
X170683000Y-67975000D01*
X170683000Y-67975000D02*
X177103000Y-67975000D01*
X177103000Y-67975000D02*
X177103000Y-65355000D01*
X177103000Y-65355000D02*
X170683000Y-65355000D01*
X169793000Y-66665000D02*
X170683000Y-66665000D01*
X177993000Y-66665000D02*
X177103000Y-66665000D01*
X134877000Y-88462000D02*
X134877000Y-81862000D01*
X134877000Y-97462000D02*
X134877000Y-90862000D01*
X134877000Y-97462000D02*
X115077000Y-97462000D01*
X115077000Y-97462000D02*
X115077000Y-81862000D01*
X115077000Y-81862000D02*
X134877000Y-81862000D01*
X119327000Y-85462000D02*
X119327000Y-87912000D01*
X119327000Y-93862000D02*
X119327000Y-91362000D01*
X129927000Y-83612000D02*
X127427000Y-83612000D01*
X130827000Y-89612000D02*
X131627000Y-89612000D01*
X127427000Y-95612000D02*
X129927000Y-95612000D01*
X124027000Y-89612000D02*
X122527000Y-89612000D01*
X122527000Y-89612000D02*
X117927000Y-92112000D01*
X124027000Y-86012000D02*
X130827000Y-86012000D01*
X124027000Y-89612000D02*
X124027000Y-86012000D01*
X130827000Y-89612000D02*
X130827000Y-86012000D01*
X127427000Y-95612000D02*
X127427000Y-91412000D01*
X127427000Y-87812000D02*
X127427000Y-83612000D01*
X125427000Y-87812000D02*
X129427000Y-91412000D01*
X129427000Y-87812000D02*
X129427000Y-91412000D01*
X129427000Y-91412000D02*
X125427000Y-91412000D01*
X125427000Y-91412000D02*
X125427000Y-87812000D01*
X125427000Y-87812000D02*
X129427000Y-87812000D01*
D14*
G36*
X117878233Y-103719597D02*
X118053892Y-103719958D01*
X118199069Y-103720942D01*
X118316052Y-103722620D01*
X118407126Y-103725059D01*
X118474579Y-103728330D01*
X118520699Y-103732502D01*
X118547772Y-103737644D01*
X118553958Y-103740080D01*
X118572009Y-103759412D01*
X118603511Y-103803697D01*
X118646247Y-103869102D01*
X118697996Y-103951796D01*
X118756541Y-104047945D01*
X118819662Y-104153719D01*
X118885141Y-104265284D01*
X118950758Y-104378809D01*
X119014294Y-104490461D01*
X119073531Y-104596409D01*
X119126249Y-104692819D01*
X119170230Y-104775861D01*
X119203254Y-104841701D01*
X119223104Y-104886508D01*
X119228013Y-104904194D01*
X119219434Y-104933439D01*
X119193624Y-104989882D01*
X119150856Y-105073013D01*
X119091399Y-105182319D01*
X119015524Y-105317288D01*
X118938882Y-105450842D01*
X118871621Y-105567703D01*
X118809912Y-105675938D01*
X118755618Y-105772202D01*
X118710603Y-105853147D01*
X118676729Y-105915425D01*
X118655861Y-105955690D01*
X118649734Y-105970262D01*
X118657770Y-105988441D01*
X118680420Y-106031475D01*
X118715762Y-106095917D01*
X118761874Y-106178326D01*
X118816833Y-106275257D01*
X118878718Y-106383267D01*
X118925247Y-106463826D01*
X119007196Y-106605301D01*
X119074095Y-106721294D01*
X119127280Y-106814703D01*
X119168089Y-106888430D01*
X119197859Y-106945374D01*
X119217927Y-106988435D01*
X119229631Y-107020513D01*
X119234308Y-107044509D01*
X119233294Y-107063323D01*
X119227927Y-107079854D01*
X119219545Y-107097002D01*
X119218313Y-107099409D01*
X119200834Y-107131741D01*
X119169809Y-107187155D01*
X119127601Y-107261569D01*
X119076571Y-107350900D01*
X119019080Y-107451063D01*
X118957492Y-107557977D01*
X118894168Y-107667558D01*
X118831469Y-107775722D01*
X118771757Y-107878387D01*
X118717394Y-107971470D01*
X118670742Y-108050887D01*
X118634163Y-108112556D01*
X118610019Y-108152392D01*
X118602316Y-108164355D01*
X118570671Y-108209419D01*
X117212367Y-108209419D01*
X117158329Y-108123387D01*
X117136471Y-108087371D01*
X117100902Y-108027300D01*
X117054183Y-107947567D01*
X116998878Y-107852564D01*
X116937548Y-107746685D01*
X116872757Y-107634322D01*
X116852873Y-107599736D01*
X116604655Y-107167686D01*
X116874930Y-107167686D01*
X116875658Y-107171671D01*
X116886364Y-107192671D01*
X116911254Y-107238072D01*
X116948094Y-107303906D01*
X116994652Y-107386209D01*
X117048694Y-107481014D01*
X117107986Y-107584356D01*
X117110927Y-107589465D01*
X117335677Y-107979847D01*
X118445963Y-107971807D01*
X118621130Y-107668645D01*
X118677805Y-107570380D01*
X118733164Y-107474073D01*
X118783564Y-107386086D01*
X118825363Y-107312779D01*
X118854918Y-107260512D01*
X118858075Y-107254871D01*
X118919853Y-107144258D01*
X117892496Y-107144258D01*
X117683180Y-107144305D01*
X117504299Y-107144489D01*
X117353515Y-107144871D01*
X117228489Y-107145516D01*
X117126883Y-107146487D01*
X117046357Y-107147845D01*
X116984573Y-107149656D01*
X116939192Y-107151981D01*
X116907876Y-107154883D01*
X116888286Y-107158426D01*
X116878084Y-107162673D01*
X116874930Y-107167686D01*
X116604655Y-107167686D01*
X116601456Y-107162118D01*
X115990004Y-107157285D01*
X115828831Y-107155846D01*
X115697384Y-107154232D01*
X115592615Y-107152304D01*
X115511475Y-107149920D01*
X115450915Y-107146938D01*
X115407889Y-107143217D01*
X115379346Y-107138617D01*
X115362240Y-107132996D01*
X115354931Y-107127871D01*
X115336608Y-107102952D01*
X115305426Y-107054008D01*
X115263532Y-106984861D01*
X115218312Y-106908214D01*
X115639613Y-106908214D01*
X115655321Y-106909901D01*
X115699728Y-106911430D01*
X115768759Y-106912743D01*
X115858340Y-106913785D01*
X115964395Y-106914497D01*
X116082851Y-106914824D01*
X116114633Y-106914839D01*
X116589653Y-106914839D01*
X116867263Y-106914839D01*
X117883954Y-106914839D01*
X118063148Y-106914677D01*
X118232274Y-106914211D01*
X118388546Y-106913468D01*
X118529178Y-106912477D01*
X118651386Y-106911266D01*
X118752385Y-106909864D01*
X118829388Y-106908299D01*
X118879611Y-106906599D01*
X118900269Y-106904792D01*
X118900645Y-106904510D01*
X118897019Y-106895474D01*
X118885418Y-106873108D01*
X118864760Y-106835511D01*
X118833960Y-106780779D01*
X118791937Y-106707012D01*
X118737607Y-106612305D01*
X118669886Y-106494757D01*
X118587691Y-106352464D01*
X118502882Y-106205881D01*
X118438724Y-106095052D01*
X117338196Y-106103678D01*
X117143188Y-106439613D01*
X117085567Y-106538875D01*
X117031131Y-106632644D01*
X116982814Y-106715870D01*
X116943547Y-106783502D01*
X116916262Y-106830491D01*
X116907722Y-106845194D01*
X116867263Y-106914839D01*
X116589653Y-106914839D01*
X116627935Y-106853387D01*
X116646004Y-106823304D01*
X116677876Y-106769100D01*
X116721046Y-106695082D01*
X116773010Y-106605557D01*
X116831261Y-106504833D01*
X116893296Y-106397216D01*
X116900446Y-106384791D01*
X116969661Y-106263928D01*
X117023691Y-106168054D01*
X117064100Y-106093987D01*
X117092454Y-106038548D01*
X117110319Y-105998555D01*
X117119259Y-105970827D01*
X117120840Y-105952184D01*
X117118181Y-105942340D01*
X117105771Y-105919114D01*
X117079213Y-105871678D01*
X117040852Y-105804144D01*
X116993034Y-105720623D01*
X116938105Y-105625227D01*
X116879953Y-105524730D01*
X116658218Y-105142427D01*
X116569109Y-105295310D01*
X116527419Y-105366976D01*
X116471003Y-105464169D01*
X116401517Y-105584030D01*
X116320616Y-105723700D01*
X116229956Y-105880318D01*
X116131193Y-106051025D01*
X116025981Y-106232962D01*
X115915977Y-106423269D01*
X115846445Y-106543601D01*
X115790072Y-106641424D01*
X115739549Y-106729578D01*
X115697071Y-106804194D01*
X115664833Y-106861401D01*
X115645031Y-106897330D01*
X115639613Y-106908214D01*
X115218312Y-106908214D01*
X115213072Y-106899333D01*
X115156191Y-106801244D01*
X115095036Y-106694416D01*
X115031751Y-106582671D01*
X114968484Y-106469830D01*
X114907379Y-106359714D01*
X114850583Y-106256144D01*
X114800242Y-106162943D01*
X114758500Y-106083931D01*
X114727505Y-106022929D01*
X114709401Y-105983759D01*
X114708039Y-105979399D01*
X114954618Y-105979399D01*
X114965370Y-105999671D01*
X114989720Y-106042713D01*
X115025153Y-106104249D01*
X115069153Y-106180004D01*
X115119203Y-106265702D01*
X115172786Y-106357068D01*
X115227386Y-106449826D01*
X115280488Y-106539702D01*
X115329573Y-106622420D01*
X115372127Y-106693704D01*
X115405632Y-106749279D01*
X115427572Y-106784869D01*
X115435413Y-106796274D01*
X115444107Y-106781672D01*
X115467658Y-106741329D01*
X115504534Y-106677886D01*
X115553205Y-106593985D01*
X115612140Y-106492268D01*
X115679807Y-106375375D01*
X115754676Y-106245949D01*
X115835216Y-106106631D01*
X115870065Y-106046323D01*
X115980743Y-105854767D01*
X116076161Y-105689610D01*
X116157449Y-105548868D01*
X116225739Y-105430558D01*
X116282162Y-105332698D01*
X116327847Y-105253303D01*
X116363927Y-105190392D01*
X116391532Y-105141981D01*
X116411793Y-105106088D01*
X116425841Y-105080728D01*
X116434806Y-105063921D01*
X116439820Y-105053681D01*
X116442013Y-105048027D01*
X116442516Y-105044975D01*
X116442459Y-105042613D01*
X116426784Y-105039480D01*
X116382413Y-105036642D01*
X116313423Y-105034204D01*
X116223893Y-105032272D01*
X116117899Y-105030951D01*
X115999520Y-105030349D01*
X115968541Y-105030323D01*
X115494502Y-105030323D01*
X115437757Y-105124549D01*
X115389108Y-105206176D01*
X115334658Y-105298965D01*
X115276658Y-105398933D01*
X115217357Y-105502101D01*
X115159004Y-105604489D01*
X115103849Y-105702116D01*
X115054141Y-105791002D01*
X115012130Y-105867167D01*
X114980065Y-105926631D01*
X114960196Y-105965414D01*
X114954618Y-105979399D01*
X114708039Y-105979399D01*
X114705548Y-105971431D01*
X114713466Y-105949673D01*
X114735784Y-105903450D01*
X114770352Y-105836581D01*
X114815021Y-105752890D01*
X114867638Y-105656198D01*
X114926054Y-105550325D01*
X114988118Y-105439095D01*
X115051679Y-105326329D01*
X115114586Y-105215847D01*
X115174690Y-105111473D01*
X115229839Y-105017026D01*
X115277883Y-104936330D01*
X115297496Y-104904412D01*
X116803097Y-104904412D01*
X116810969Y-104920523D01*
X116833105Y-104961072D01*
X116867281Y-105022169D01*
X116911275Y-105099927D01*
X116962866Y-105190456D01*
X117019829Y-105289867D01*
X117079944Y-105394273D01*
X117140987Y-105499783D01*
X117200736Y-105602510D01*
X117256694Y-105698097D01*
X117345783Y-105849678D01*
X117820053Y-105849678D01*
X117940924Y-105849451D01*
X118050435Y-105848810D01*
X118144506Y-105847813D01*
X118219060Y-105846520D01*
X118270018Y-105844989D01*
X118293303Y-105843279D01*
X118294322Y-105842829D01*
X118289247Y-105832439D01*
X118273601Y-105803990D01*
X118246754Y-105756385D01*
X118208074Y-105688526D01*
X118156932Y-105599315D01*
X118092696Y-105487657D01*
X118014736Y-105352453D01*
X117922421Y-105192607D01*
X117815121Y-105007020D01*
X117692205Y-104794597D01*
X117643682Y-104710774D01*
X117555900Y-104559275D01*
X117483075Y-104433914D01*
X117423844Y-104332409D01*
X117376844Y-104252477D01*
X117340712Y-104191836D01*
X117314083Y-104148202D01*
X117295595Y-104119292D01*
X117283884Y-104102824D01*
X117277587Y-104096516D01*
X117276661Y-104096258D01*
X117266637Y-104109748D01*
X117242860Y-104147315D01*
X117207880Y-104204607D01*
X117164248Y-104277270D01*
X117114516Y-104360950D01*
X117061234Y-104451294D01*
X117006953Y-104543950D01*
X116954224Y-104634563D01*
X116905599Y-104718781D01*
X116863627Y-104792250D01*
X116830861Y-104850617D01*
X116809851Y-104889529D01*
X116803097Y-104904412D01*
X115297496Y-104904412D01*
X115316672Y-104873206D01*
X115344054Y-104831474D01*
X115355038Y-104817290D01*
X115365572Y-104810740D01*
X115385536Y-104805264D01*
X115417965Y-104800703D01*
X115465894Y-104796901D01*
X115532357Y-104793701D01*
X115620388Y-104790945D01*
X115733022Y-104788478D01*
X115873293Y-104786141D01*
X115988282Y-104784516D01*
X116598010Y-104776323D01*
X116870733Y-104301097D01*
X116937935Y-104184933D01*
X117002081Y-104075814D01*
X117060846Y-103977562D01*
X117062037Y-103975612D01*
X117491355Y-103975612D01*
X117499311Y-103993294D01*
X117522039Y-104035850D01*
X117557826Y-104100347D01*
X117604960Y-104183849D01*
X117661731Y-104283423D01*
X117726426Y-104396135D01*
X117797333Y-104519049D01*
X117872741Y-104649233D01*
X117950938Y-104783752D01*
X118030211Y-104919671D01*
X118108850Y-105054057D01*
X118185142Y-105183975D01*
X118257375Y-105306491D01*
X118323839Y-105418671D01*
X118382820Y-105517581D01*
X118432608Y-105600286D01*
X118471490Y-105663853D01*
X118497754Y-105705347D01*
X118509689Y-105721834D01*
X118510161Y-105721949D01*
X118520978Y-105705270D01*
X118545968Y-105663913D01*
X118582939Y-105601598D01*
X118629697Y-105522042D01*
X118684048Y-105428965D01*
X118743801Y-105326085D01*
X118753121Y-105309992D01*
X118821783Y-105190869D01*
X118875242Y-105096664D01*
X118915088Y-105024149D01*
X118942907Y-104970095D01*
X118960287Y-104931274D01*
X118968818Y-104904458D01*
X118970086Y-104886418D01*
X118966728Y-104875734D01*
X118954202Y-104853398D01*
X118927493Y-104806468D01*
X118888777Y-104738748D01*
X118840234Y-104654042D01*
X118784042Y-104556154D01*
X118722379Y-104448888D01*
X118698630Y-104407613D01*
X118448703Y-103973355D01*
X117970029Y-103969011D01*
X117848580Y-103968268D01*
X117738472Y-103968284D01*
X117643763Y-103969004D01*
X117568514Y-103970371D01*
X117516781Y-103972330D01*
X117492624Y-103974825D01*
X117491355Y-103975612D01*
X117062037Y-103975612D01*
X117111906Y-103894000D01*
X117152935Y-103828949D01*
X117181609Y-103786231D01*
X117192187Y-103772613D01*
X117240917Y-103719355D01*
X117878233Y-103719597D01*
X117878233Y-103719597D01*
G37*
X117878233Y-103719597D02*
X118053892Y-103719958D01*
X118199069Y-103720942D01*
X118316052Y-103722620D01*
X118407126Y-103725059D01*
X118474579Y-103728330D01*
X118520699Y-103732502D01*
X118547772Y-103737644D01*
X118553958Y-103740080D01*
X118572009Y-103759412D01*
X118603511Y-103803697D01*
X118646247Y-103869102D01*
X118697996Y-103951796D01*
X118756541Y-104047945D01*
X118819662Y-104153719D01*
X118885141Y-104265284D01*
X118950758Y-104378809D01*
X119014294Y-104490461D01*
X119073531Y-104596409D01*
X119126249Y-104692819D01*
X119170230Y-104775861D01*
X119203254Y-104841701D01*
X119223104Y-104886508D01*
X119228013Y-104904194D01*
X119219434Y-104933439D01*
X119193624Y-104989882D01*
X119150856Y-105073013D01*
X119091399Y-105182319D01*
X119015524Y-105317288D01*
X118938882Y-105450842D01*
X118871621Y-105567703D01*
X118809912Y-105675938D01*
X118755618Y-105772202D01*
X118710603Y-105853147D01*
X118676729Y-105915425D01*
X118655861Y-105955690D01*
X118649734Y-105970262D01*
X118657770Y-105988441D01*
X118680420Y-106031475D01*
X118715762Y-106095917D01*
X118761874Y-106178326D01*
X118816833Y-106275257D01*
X118878718Y-106383267D01*
X118925247Y-106463826D01*
X119007196Y-106605301D01*
X119074095Y-106721294D01*
X119127280Y-106814703D01*
X119168089Y-106888430D01*
X119197859Y-106945374D01*
X119217927Y-106988435D01*
X119229631Y-107020513D01*
X119234308Y-107044509D01*
X119233294Y-107063323D01*
X119227927Y-107079854D01*
X119219545Y-107097002D01*
X119218313Y-107099409D01*
X119200834Y-107131741D01*
X119169809Y-107187155D01*
X119127601Y-107261569D01*
X119076571Y-107350900D01*
X119019080Y-107451063D01*
X118957492Y-107557977D01*
X118894168Y-107667558D01*
X118831469Y-107775722D01*
X118771757Y-107878387D01*
X118717394Y-107971470D01*
X118670742Y-108050887D01*
X118634163Y-108112556D01*
X118610019Y-108152392D01*
X118602316Y-108164355D01*
X118570671Y-108209419D01*
X117212367Y-108209419D01*
X117158329Y-108123387D01*
X117136471Y-108087371D01*
X117100902Y-108027300D01*
X117054183Y-107947567D01*
X116998878Y-107852564D01*
X116937548Y-107746685D01*
X116872757Y-107634322D01*
X116852873Y-107599736D01*
X116604655Y-107167686D01*
X116874930Y-107167686D01*
X116875658Y-107171671D01*
X116886364Y-107192671D01*
X116911254Y-107238072D01*
X116948094Y-107303906D01*
X116994652Y-107386209D01*
X117048694Y-107481014D01*
X117107986Y-107584356D01*
X117110927Y-107589465D01*
X117335677Y-107979847D01*
X118445963Y-107971807D01*
X118621130Y-107668645D01*
X118677805Y-107570380D01*
X118733164Y-107474073D01*
X118783564Y-107386086D01*
X118825363Y-107312779D01*
X118854918Y-107260512D01*
X118858075Y-107254871D01*
X118919853Y-107144258D01*
X117892496Y-107144258D01*
X117683180Y-107144305D01*
X117504299Y-107144489D01*
X117353515Y-107144871D01*
X117228489Y-107145516D01*
X117126883Y-107146487D01*
X117046357Y-107147845D01*
X116984573Y-107149656D01*
X116939192Y-107151981D01*
X116907876Y-107154883D01*
X116888286Y-107158426D01*
X116878084Y-107162673D01*
X116874930Y-107167686D01*
X116604655Y-107167686D01*
X116601456Y-107162118D01*
X115990004Y-107157285D01*
X115828831Y-107155846D01*
X115697384Y-107154232D01*
X115592615Y-107152304D01*
X115511475Y-107149920D01*
X115450915Y-107146938D01*
X115407889Y-107143217D01*
X115379346Y-107138617D01*
X115362240Y-107132996D01*
X115354931Y-107127871D01*
X115336608Y-107102952D01*
X115305426Y-107054008D01*
X115263532Y-106984861D01*
X115218312Y-106908214D01*
X115639613Y-106908214D01*
X115655321Y-106909901D01*
X115699728Y-106911430D01*
X115768759Y-106912743D01*
X115858340Y-106913785D01*
X115964395Y-106914497D01*
X116082851Y-106914824D01*
X116114633Y-106914839D01*
X116589653Y-106914839D01*
X116867263Y-106914839D01*
X117883954Y-106914839D01*
X118063148Y-106914677D01*
X118232274Y-106914211D01*
X118388546Y-106913468D01*
X118529178Y-106912477D01*
X118651386Y-106911266D01*
X118752385Y-106909864D01*
X118829388Y-106908299D01*
X118879611Y-106906599D01*
X118900269Y-106904792D01*
X118900645Y-106904510D01*
X118897019Y-106895474D01*
X118885418Y-106873108D01*
X118864760Y-106835511D01*
X118833960Y-106780779D01*
X118791937Y-106707012D01*
X118737607Y-106612305D01*
X118669886Y-106494757D01*
X118587691Y-106352464D01*
X118502882Y-106205881D01*
X118438724Y-106095052D01*
X117338196Y-106103678D01*
X117143188Y-106439613D01*
X117085567Y-106538875D01*
X117031131Y-106632644D01*
X116982814Y-106715870D01*
X116943547Y-106783502D01*
X116916262Y-106830491D01*
X116907722Y-106845194D01*
X116867263Y-106914839D01*
X116589653Y-106914839D01*
X116627935Y-106853387D01*
X116646004Y-106823304D01*
X116677876Y-106769100D01*
X116721046Y-106695082D01*
X116773010Y-106605557D01*
X116831261Y-106504833D01*
X116893296Y-106397216D01*
X116900446Y-106384791D01*
X116969661Y-106263928D01*
X117023691Y-106168054D01*
X117064100Y-106093987D01*
X117092454Y-106038548D01*
X117110319Y-105998555D01*
X117119259Y-105970827D01*
X117120840Y-105952184D01*
X117118181Y-105942340D01*
X117105771Y-105919114D01*
X117079213Y-105871678D01*
X117040852Y-105804144D01*
X116993034Y-105720623D01*
X116938105Y-105625227D01*
X116879953Y-105524730D01*
X116658218Y-105142427D01*
X116569109Y-105295310D01*
X116527419Y-105366976D01*
X116471003Y-105464169D01*
X116401517Y-105584030D01*
X116320616Y-105723700D01*
X116229956Y-105880318D01*
X116131193Y-106051025D01*
X116025981Y-106232962D01*
X115915977Y-106423269D01*
X115846445Y-106543601D01*
X115790072Y-106641424D01*
X115739549Y-106729578D01*
X115697071Y-106804194D01*
X115664833Y-106861401D01*
X115645031Y-106897330D01*
X115639613Y-106908214D01*
X115218312Y-106908214D01*
X115213072Y-106899333D01*
X115156191Y-106801244D01*
X115095036Y-106694416D01*
X115031751Y-106582671D01*
X114968484Y-106469830D01*
X114907379Y-106359714D01*
X114850583Y-106256144D01*
X114800242Y-106162943D01*
X114758500Y-106083931D01*
X114727505Y-106022929D01*
X114709401Y-105983759D01*
X114708039Y-105979399D01*
X114954618Y-105979399D01*
X114965370Y-105999671D01*
X114989720Y-106042713D01*
X115025153Y-106104249D01*
X115069153Y-106180004D01*
X115119203Y-106265702D01*
X115172786Y-106357068D01*
X115227386Y-106449826D01*
X115280488Y-106539702D01*
X115329573Y-106622420D01*
X115372127Y-106693704D01*
X115405632Y-106749279D01*
X115427572Y-106784869D01*
X115435413Y-106796274D01*
X115444107Y-106781672D01*
X115467658Y-106741329D01*
X115504534Y-106677886D01*
X115553205Y-106593985D01*
X115612140Y-106492268D01*
X115679807Y-106375375D01*
X115754676Y-106245949D01*
X115835216Y-106106631D01*
X115870065Y-106046323D01*
X115980743Y-105854767D01*
X116076161Y-105689610D01*
X116157449Y-105548868D01*
X116225739Y-105430558D01*
X116282162Y-105332698D01*
X116327847Y-105253303D01*
X116363927Y-105190392D01*
X116391532Y-105141981D01*
X116411793Y-105106088D01*
X116425841Y-105080728D01*
X116434806Y-105063921D01*
X116439820Y-105053681D01*
X116442013Y-105048027D01*
X116442516Y-105044975D01*
X116442459Y-105042613D01*
X116426784Y-105039480D01*
X116382413Y-105036642D01*
X116313423Y-105034204D01*
X116223893Y-105032272D01*
X116117899Y-105030951D01*
X115999520Y-105030349D01*
X115968541Y-105030323D01*
X115494502Y-105030323D01*
X115437757Y-105124549D01*
X115389108Y-105206176D01*
X115334658Y-105298965D01*
X115276658Y-105398933D01*
X115217357Y-105502101D01*
X115159004Y-105604489D01*
X115103849Y-105702116D01*
X115054141Y-105791002D01*
X115012130Y-105867167D01*
X114980065Y-105926631D01*
X114960196Y-105965414D01*
X114954618Y-105979399D01*
X114708039Y-105979399D01*
X114705548Y-105971431D01*
X114713466Y-105949673D01*
X114735784Y-105903450D01*
X114770352Y-105836581D01*
X114815021Y-105752890D01*
X114867638Y-105656198D01*
X114926054Y-105550325D01*
X114988118Y-105439095D01*
X115051679Y-105326329D01*
X115114586Y-105215847D01*
X115174690Y-105111473D01*
X115229839Y-105017026D01*
X115277883Y-104936330D01*
X115297496Y-104904412D01*
X116803097Y-104904412D01*
X116810969Y-104920523D01*
X116833105Y-104961072D01*
X116867281Y-105022169D01*
X116911275Y-105099927D01*
X116962866Y-105190456D01*
X117019829Y-105289867D01*
X117079944Y-105394273D01*
X117140987Y-105499783D01*
X117200736Y-105602510D01*
X117256694Y-105698097D01*
X117345783Y-105849678D01*
X117820053Y-105849678D01*
X117940924Y-105849451D01*
X118050435Y-105848810D01*
X118144506Y-105847813D01*
X118219060Y-105846520D01*
X118270018Y-105844989D01*
X118293303Y-105843279D01*
X118294322Y-105842829D01*
X118289247Y-105832439D01*
X118273601Y-105803990D01*
X118246754Y-105756385D01*
X118208074Y-105688526D01*
X118156932Y-105599315D01*
X118092696Y-105487657D01*
X118014736Y-105352453D01*
X117922421Y-105192607D01*
X117815121Y-105007020D01*
X117692205Y-104794597D01*
X117643682Y-104710774D01*
X117555900Y-104559275D01*
X117483075Y-104433914D01*
X117423844Y-104332409D01*
X117376844Y-104252477D01*
X117340712Y-104191836D01*
X117314083Y-104148202D01*
X117295595Y-104119292D01*
X117283884Y-104102824D01*
X117277587Y-104096516D01*
X117276661Y-104096258D01*
X117266637Y-104109748D01*
X117242860Y-104147315D01*
X117207880Y-104204607D01*
X117164248Y-104277270D01*
X117114516Y-104360950D01*
X117061234Y-104451294D01*
X117006953Y-104543950D01*
X116954224Y-104634563D01*
X116905599Y-104718781D01*
X116863627Y-104792250D01*
X116830861Y-104850617D01*
X116809851Y-104889529D01*
X116803097Y-104904412D01*
X115297496Y-104904412D01*
X115316672Y-104873206D01*
X115344054Y-104831474D01*
X115355038Y-104817290D01*
X115365572Y-104810740D01*
X115385536Y-104805264D01*
X115417965Y-104800703D01*
X115465894Y-104796901D01*
X115532357Y-104793701D01*
X115620388Y-104790945D01*
X115733022Y-104788478D01*
X115873293Y-104786141D01*
X115988282Y-104784516D01*
X116598010Y-104776323D01*
X116870733Y-104301097D01*
X116937935Y-104184933D01*
X117002081Y-104075814D01*
X117060846Y-103977562D01*
X117062037Y-103975612D01*
X117491355Y-103975612D01*
X117499311Y-103993294D01*
X117522039Y-104035850D01*
X117557826Y-104100347D01*
X117604960Y-104183849D01*
X117661731Y-104283423D01*
X117726426Y-104396135D01*
X117797333Y-104519049D01*
X117872741Y-104649233D01*
X117950938Y-104783752D01*
X118030211Y-104919671D01*
X118108850Y-105054057D01*
X118185142Y-105183975D01*
X118257375Y-105306491D01*
X118323839Y-105418671D01*
X118382820Y-105517581D01*
X118432608Y-105600286D01*
X118471490Y-105663853D01*
X118497754Y-105705347D01*
X118509689Y-105721834D01*
X118510161Y-105721949D01*
X118520978Y-105705270D01*
X118545968Y-105663913D01*
X118582939Y-105601598D01*
X118629697Y-105522042D01*
X118684048Y-105428965D01*
X118743801Y-105326085D01*
X118753121Y-105309992D01*
X118821783Y-105190869D01*
X118875242Y-105096664D01*
X118915088Y-105024149D01*
X118942907Y-104970095D01*
X118960287Y-104931274D01*
X118968818Y-104904458D01*
X118970086Y-104886418D01*
X118966728Y-104875734D01*
X118954202Y-104853398D01*
X118927493Y-104806468D01*
X118888777Y-104738748D01*
X118840234Y-104654042D01*
X118784042Y-104556154D01*
X118722379Y-104448888D01*
X118698630Y-104407613D01*
X118448703Y-103973355D01*
X117970029Y-103969011D01*
X117848580Y-103968268D01*
X117738472Y-103968284D01*
X117643763Y-103969004D01*
X117568514Y-103970371D01*
X117516781Y-103972330D01*
X117492624Y-103974825D01*
X117491355Y-103975612D01*
X117062037Y-103975612D01*
X117111906Y-103894000D01*
X117152935Y-103828949D01*
X117181609Y-103786231D01*
X117192187Y-103772613D01*
X117240917Y-103719355D01*
X117878233Y-103719597D01*
G36*
X140564387Y-104428643D02*
X140774945Y-104454634D01*
X140978010Y-104510930D01*
X141170987Y-104595433D01*
X141351278Y-104706040D01*
X141516288Y-104840652D01*
X141663421Y-104997169D01*
X141790080Y-105173491D01*
X141893670Y-105367516D01*
X141967613Y-105563913D01*
X141984123Y-105620368D01*
X141996041Y-105669768D01*
X142004137Y-105719380D01*
X142009178Y-105776474D01*
X142011934Y-105848317D01*
X142013174Y-105942177D01*
X142013457Y-105997161D01*
X142013395Y-106106393D01*
X142011842Y-106189946D01*
X142008180Y-106254906D01*
X142001790Y-106308355D01*
X141992054Y-106357379D01*
X141978353Y-106409062D01*
X141977129Y-106413312D01*
X141900400Y-106624120D01*
X141798340Y-106818484D01*
X141673519Y-106994743D01*
X141528507Y-107151231D01*
X141365877Y-107286284D01*
X141188198Y-107398239D01*
X140998042Y-107485431D01*
X140797980Y-107546196D01*
X140590583Y-107578871D01*
X140378422Y-107581792D01*
X140203871Y-107561028D01*
X139983428Y-107505207D01*
X139776949Y-107420539D01*
X139586452Y-107308696D01*
X139413954Y-107171350D01*
X139261473Y-107010174D01*
X139131025Y-106826840D01*
X139024629Y-106623019D01*
X138999510Y-106562729D01*
X138934699Y-106355043D01*
X138900656Y-106141752D01*
X138897684Y-105980774D01*
X139349195Y-105980774D01*
X139363462Y-106175174D01*
X139407968Y-106358959D01*
X139481360Y-106529735D01*
X139582287Y-106685106D01*
X139709397Y-106822678D01*
X139861336Y-106940057D01*
X139906778Y-106968174D01*
X140068653Y-107048326D01*
X140232789Y-107098297D01*
X140403098Y-107118647D01*
X140583497Y-107109935D01*
X140725166Y-107085247D01*
X140867086Y-107039969D01*
X141010501Y-106969196D01*
X141146737Y-106878590D01*
X141267122Y-106773814D01*
X141351782Y-106676124D01*
X141447791Y-106519918D01*
X141521073Y-106341563D01*
X141549728Y-106242384D01*
X141576299Y-106072660D01*
X141573019Y-105899853D01*
X141541959Y-105728219D01*
X141485190Y-105562009D01*
X141404780Y-105405477D01*
X141302802Y-105262876D01*
X141181324Y-105138459D01*
X141042417Y-105036480D01*
X140935519Y-104980545D01*
X140792414Y-104930067D01*
X140635809Y-104896991D01*
X140475645Y-104882306D01*
X140321861Y-104886997D01*
X140200917Y-104907628D01*
X140033217Y-104965550D01*
X139874717Y-105050059D01*
X139730451Y-105157157D01*
X139605449Y-105282846D01*
X139504743Y-105423128D01*
X139469077Y-105489161D01*
X139413010Y-105616330D01*
X139376347Y-105731892D01*
X139356084Y-105848161D01*
X139349219Y-105977450D01*
X139349195Y-105980774D01*
X138897684Y-105980774D01*
X138896680Y-105926396D01*
X138922066Y-105712516D01*
X138976112Y-105503651D01*
X139058115Y-105303343D01*
X139167370Y-105115133D01*
X139303176Y-104942559D01*
X139326222Y-104917789D01*
X139495655Y-104760605D01*
X139676113Y-104634053D01*
X139868481Y-104537784D01*
X140073644Y-104471447D01*
X140292488Y-104434692D01*
X140525898Y-104427170D01*
X140564387Y-104428643D01*
X140564387Y-104428643D01*
G37*
X140564387Y-104428643D02*
X140774945Y-104454634D01*
X140978010Y-104510930D01*
X141170987Y-104595433D01*
X141351278Y-104706040D01*
X141516288Y-104840652D01*
X141663421Y-104997169D01*
X141790080Y-105173491D01*
X141893670Y-105367516D01*
X141967613Y-105563913D01*
X141984123Y-105620368D01*
X141996041Y-105669768D01*
X142004137Y-105719380D01*
X142009178Y-105776474D01*
X142011934Y-105848317D01*
X142013174Y-105942177D01*
X142013457Y-105997161D01*
X142013395Y-106106393D01*
X142011842Y-106189946D01*
X142008180Y-106254906D01*
X142001790Y-106308355D01*
X141992054Y-106357379D01*
X141978353Y-106409062D01*
X141977129Y-106413312D01*
X141900400Y-106624120D01*
X141798340Y-106818484D01*
X141673519Y-106994743D01*
X141528507Y-107151231D01*
X141365877Y-107286284D01*
X141188198Y-107398239D01*
X140998042Y-107485431D01*
X140797980Y-107546196D01*
X140590583Y-107578871D01*
X140378422Y-107581792D01*
X140203871Y-107561028D01*
X139983428Y-107505207D01*
X139776949Y-107420539D01*
X139586452Y-107308696D01*
X139413954Y-107171350D01*
X139261473Y-107010174D01*
X139131025Y-106826840D01*
X139024629Y-106623019D01*
X138999510Y-106562729D01*
X138934699Y-106355043D01*
X138900656Y-106141752D01*
X138897684Y-105980774D01*
X139349195Y-105980774D01*
X139363462Y-106175174D01*
X139407968Y-106358959D01*
X139481360Y-106529735D01*
X139582287Y-106685106D01*
X139709397Y-106822678D01*
X139861336Y-106940057D01*
X139906778Y-106968174D01*
X140068653Y-107048326D01*
X140232789Y-107098297D01*
X140403098Y-107118647D01*
X140583497Y-107109935D01*
X140725166Y-107085247D01*
X140867086Y-107039969D01*
X141010501Y-106969196D01*
X141146737Y-106878590D01*
X141267122Y-106773814D01*
X141351782Y-106676124D01*
X141447791Y-106519918D01*
X141521073Y-106341563D01*
X141549728Y-106242384D01*
X141576299Y-106072660D01*
X141573019Y-105899853D01*
X141541959Y-105728219D01*
X141485190Y-105562009D01*
X141404780Y-105405477D01*
X141302802Y-105262876D01*
X141181324Y-105138459D01*
X141042417Y-105036480D01*
X140935519Y-104980545D01*
X140792414Y-104930067D01*
X140635809Y-104896991D01*
X140475645Y-104882306D01*
X140321861Y-104886997D01*
X140200917Y-104907628D01*
X140033217Y-104965550D01*
X139874717Y-105050059D01*
X139730451Y-105157157D01*
X139605449Y-105282846D01*
X139504743Y-105423128D01*
X139469077Y-105489161D01*
X139413010Y-105616330D01*
X139376347Y-105731892D01*
X139356084Y-105848161D01*
X139349219Y-105977450D01*
X139349195Y-105980774D01*
X138897684Y-105980774D01*
X138896680Y-105926396D01*
X138922066Y-105712516D01*
X138976112Y-105503651D01*
X139058115Y-105303343D01*
X139167370Y-105115133D01*
X139303176Y-104942559D01*
X139326222Y-104917789D01*
X139495655Y-104760605D01*
X139676113Y-104634053D01*
X139868481Y-104537784D01*
X140073644Y-104471447D01*
X140292488Y-104434692D01*
X140525898Y-104427170D01*
X140564387Y-104428643D01*
G36*
X129548651Y-104665710D02*
X129544064Y-104874645D01*
X129081129Y-104878997D01*
X128618193Y-104883349D01*
X128618193Y-107553936D01*
X128175742Y-107553936D01*
X128175742Y-104883349D01*
X127712806Y-104878997D01*
X127249871Y-104874645D01*
X127245284Y-104665710D01*
X127240698Y-104456774D01*
X129553237Y-104456774D01*
X129548651Y-104665710D01*
X129548651Y-104665710D01*
G37*
X129548651Y-104665710D02*
X129544064Y-104874645D01*
X129081129Y-104878997D01*
X128618193Y-104883349D01*
X128618193Y-107553936D01*
X128175742Y-107553936D01*
X128175742Y-104883349D01*
X127712806Y-104878997D01*
X127249871Y-104874645D01*
X127245284Y-104665710D01*
X127240698Y-104456774D01*
X129553237Y-104456774D01*
X129548651Y-104665710D01*
G36*
X123708461Y-105173681D02*
X123813401Y-105441710D01*
X123920855Y-105715471D01*
X124032415Y-105998997D01*
X124149671Y-106296323D01*
X124274216Y-106611483D01*
X124407640Y-106948513D01*
X124551535Y-107311446D01*
X124568790Y-107354934D01*
X124595789Y-107423558D01*
X124617627Y-107480174D01*
X124631853Y-107518348D01*
X124636129Y-107531534D01*
X124620704Y-107533671D01*
X124578260Y-107534919D01*
X124514538Y-107535223D01*
X124435284Y-107534524D01*
X124397257Y-107533890D01*
X124158384Y-107529355D01*
X124071921Y-107316323D01*
X124031637Y-107217054D01*
X123984691Y-107101340D01*
X123936733Y-106983109D01*
X123893412Y-106876289D01*
X123890770Y-106869774D01*
X123796083Y-106636258D01*
X122690495Y-106636258D01*
X122599456Y-106853387D01*
X122557316Y-106954667D01*
X122508927Y-107072187D01*
X122460120Y-107191725D01*
X122416726Y-107299054D01*
X122414727Y-107304032D01*
X122321037Y-107537549D01*
X122085680Y-107537549D01*
X122002094Y-107537154D01*
X121931581Y-107536071D01*
X121879928Y-107534446D01*
X121852925Y-107532427D01*
X121850322Y-107531535D01*
X121856115Y-107515324D01*
X121872446Y-107472675D01*
X121897746Y-107407605D01*
X121930448Y-107324132D01*
X121968981Y-107226274D01*
X122011779Y-107118048D01*
X122011892Y-107117761D01*
X122051730Y-107017212D01*
X122101560Y-106891426D01*
X122159308Y-106745640D01*
X122222901Y-106585090D01*
X122290264Y-106415012D01*
X122359324Y-106240642D01*
X122379117Y-106190662D01*
X122872309Y-106190662D01*
X122877799Y-106197632D01*
X122894246Y-106202719D01*
X122925421Y-106206218D01*
X122975097Y-106208421D01*
X123047045Y-106209621D01*
X123145036Y-106210113D01*
X123242577Y-106210194D01*
X123622337Y-106210194D01*
X123611032Y-106173323D01*
X123592268Y-106115088D01*
X123566124Y-106038113D01*
X123534174Y-105946670D01*
X123497995Y-105845032D01*
X123459163Y-105737473D01*
X123419254Y-105628265D01*
X123379846Y-105521681D01*
X123342513Y-105421994D01*
X123308833Y-105333478D01*
X123280382Y-105260404D01*
X123258736Y-105207046D01*
X123245471Y-105177677D01*
X123242153Y-105173382D01*
X123233979Y-105191405D01*
X123216289Y-105236496D01*
X123190506Y-105304829D01*
X123158050Y-105392578D01*
X123120345Y-105495914D01*
X123078810Y-105611013D01*
X123057893Y-105669419D01*
X123014898Y-105789688D01*
X122975095Y-105900871D01*
X122939917Y-105998979D01*
X122910796Y-106080022D01*
X122889166Y-106140010D01*
X122876458Y-106174953D01*
X122874004Y-106181516D01*
X122872309Y-106190662D01*
X122379117Y-106190662D01*
X122428007Y-106067215D01*
X122481708Y-105931613D01*
X122547665Y-105765059D01*
X122614918Y-105595236D01*
X122681520Y-105427057D01*
X122745525Y-105265437D01*
X122804988Y-105115291D01*
X122857961Y-104981533D01*
X122902499Y-104869078D01*
X122932745Y-104792710D01*
X123075537Y-104432194D01*
X123245414Y-104428068D01*
X123415290Y-104423942D01*
X123708461Y-105173681D01*
X123708461Y-105173681D01*
G37*
X123708461Y-105173681D02*
X123813401Y-105441710D01*
X123920855Y-105715471D01*
X124032415Y-105998997D01*
X124149671Y-106296323D01*
X124274216Y-106611483D01*
X124407640Y-106948513D01*
X124551535Y-107311446D01*
X124568790Y-107354934D01*
X124595789Y-107423558D01*
X124617627Y-107480174D01*
X124631853Y-107518348D01*
X124636129Y-107531534D01*
X124620704Y-107533671D01*
X124578260Y-107534919D01*
X124514538Y-107535223D01*
X124435284Y-107534524D01*
X124397257Y-107533890D01*
X124158384Y-107529355D01*
X124071921Y-107316323D01*
X124031637Y-107217054D01*
X123984691Y-107101340D01*
X123936733Y-106983109D01*
X123893412Y-106876289D01*
X123890770Y-106869774D01*
X123796083Y-106636258D01*
X122690495Y-106636258D01*
X122599456Y-106853387D01*
X122557316Y-106954667D01*
X122508927Y-107072187D01*
X122460120Y-107191725D01*
X122416726Y-107299054D01*
X122414727Y-107304032D01*
X122321037Y-107537549D01*
X122085680Y-107537549D01*
X122002094Y-107537154D01*
X121931581Y-107536071D01*
X121879928Y-107534446D01*
X121852925Y-107532427D01*
X121850322Y-107531535D01*
X121856115Y-107515324D01*
X121872446Y-107472675D01*
X121897746Y-107407605D01*
X121930448Y-107324132D01*
X121968981Y-107226274D01*
X122011779Y-107118048D01*
X122011892Y-107117761D01*
X122051730Y-107017212D01*
X122101560Y-106891426D01*
X122159308Y-106745640D01*
X122222901Y-106585090D01*
X122290264Y-106415012D01*
X122359324Y-106240642D01*
X122379117Y-106190662D01*
X122872309Y-106190662D01*
X122877799Y-106197632D01*
X122894246Y-106202719D01*
X122925421Y-106206218D01*
X122975097Y-106208421D01*
X123047045Y-106209621D01*
X123145036Y-106210113D01*
X123242577Y-106210194D01*
X123622337Y-106210194D01*
X123611032Y-106173323D01*
X123592268Y-106115088D01*
X123566124Y-106038113D01*
X123534174Y-105946670D01*
X123497995Y-105845032D01*
X123459163Y-105737473D01*
X123419254Y-105628265D01*
X123379846Y-105521681D01*
X123342513Y-105421994D01*
X123308833Y-105333478D01*
X123280382Y-105260404D01*
X123258736Y-105207046D01*
X123245471Y-105177677D01*
X123242153Y-105173382D01*
X123233979Y-105191405D01*
X123216289Y-105236496D01*
X123190506Y-105304829D01*
X123158050Y-105392578D01*
X123120345Y-105495914D01*
X123078810Y-105611013D01*
X123057893Y-105669419D01*
X123014898Y-105789688D01*
X122975095Y-105900871D01*
X122939917Y-105998979D01*
X122910796Y-106080022D01*
X122889166Y-106140010D01*
X122876458Y-106174953D01*
X122874004Y-106181516D01*
X122872309Y-106190662D01*
X122379117Y-106190662D01*
X122428007Y-106067215D01*
X122481708Y-105931613D01*
X122547665Y-105765059D01*
X122614918Y-105595236D01*
X122681520Y-105427057D01*
X122745525Y-105265437D01*
X122804988Y-105115291D01*
X122857961Y-104981533D01*
X122902499Y-104869078D01*
X122932745Y-104792710D01*
X123075537Y-104432194D01*
X123245414Y-104428068D01*
X123415290Y-104423942D01*
X123708461Y-105173681D01*
G36*
X135582710Y-107537549D02*
X135140494Y-107537549D01*
X135136279Y-106466585D01*
X135132064Y-105395622D01*
X134345484Y-106570158D01*
X134086646Y-106562516D01*
X133699871Y-105985639D01*
X133617468Y-105863135D01*
X133540493Y-105749472D01*
X133470888Y-105647462D01*
X133410597Y-105559917D01*
X133361563Y-105489652D01*
X133325730Y-105439479D01*
X133305041Y-105412210D01*
X133300806Y-105407994D01*
X133298689Y-105423792D01*
X133296687Y-105469647D01*
X133294832Y-105542838D01*
X133293155Y-105640647D01*
X133291687Y-105760356D01*
X133290461Y-105899246D01*
X133289507Y-106054599D01*
X133288857Y-106223696D01*
X133288541Y-106403818D01*
X133288516Y-106472387D01*
X133288516Y-107537549D01*
X132846064Y-107537549D01*
X132846064Y-104456774D01*
X133201449Y-104456774D01*
X133576463Y-105009839D01*
X133664057Y-105139016D01*
X133751234Y-105267567D01*
X133835060Y-105391168D01*
X133912601Y-105505492D01*
X133980923Y-105606214D01*
X134037092Y-105689008D01*
X134078174Y-105749548D01*
X134082154Y-105755411D01*
X134138132Y-105835285D01*
X134182195Y-105892699D01*
X134212762Y-105925740D01*
X134228253Y-105932494D01*
X134228318Y-105932430D01*
X134240235Y-105916278D01*
X134268792Y-105875552D01*
X134312235Y-105812804D01*
X134368814Y-105730589D01*
X134436777Y-105631459D01*
X134514370Y-105517967D01*
X134599843Y-105392667D01*
X134691444Y-105258112D01*
X134737097Y-105190955D01*
X135230387Y-104464968D01*
X135406548Y-104460317D01*
X135582710Y-104455665D01*
X135582710Y-107537549D01*
X135582710Y-107537549D01*
G37*
X135582710Y-107537549D02*
X135140494Y-107537549D01*
X135136279Y-106466585D01*
X135132064Y-105395622D01*
X134345484Y-106570158D01*
X134086646Y-106562516D01*
X133699871Y-105985639D01*
X133617468Y-105863135D01*
X133540493Y-105749472D01*
X133470888Y-105647462D01*
X133410597Y-105559917D01*
X133361563Y-105489652D01*
X133325730Y-105439479D01*
X133305041Y-105412210D01*
X133300806Y-105407994D01*
X133298689Y-105423792D01*
X133296687Y-105469647D01*
X133294832Y-105542838D01*
X133293155Y-105640647D01*
X133291687Y-105760356D01*
X133290461Y-105899246D01*
X133289507Y-106054599D01*
X133288857Y-106223696D01*
X133288541Y-106403818D01*
X133288516Y-106472387D01*
X133288516Y-107537549D01*
X132846064Y-107537549D01*
X132846064Y-104456774D01*
X133201449Y-104456774D01*
X133576463Y-105009839D01*
X133664057Y-105139016D01*
X133751234Y-105267567D01*
X133835060Y-105391168D01*
X133912601Y-105505492D01*
X133980923Y-105606214D01*
X134037092Y-105689008D01*
X134078174Y-105749548D01*
X134082154Y-105755411D01*
X134138132Y-105835285D01*
X134182195Y-105892699D01*
X134212762Y-105925740D01*
X134228253Y-105932494D01*
X134228318Y-105932430D01*
X134240235Y-105916278D01*
X134268792Y-105875552D01*
X134312235Y-105812804D01*
X134368814Y-105730589D01*
X134436777Y-105631459D01*
X134514370Y-105517967D01*
X134599843Y-105392667D01*
X134691444Y-105258112D01*
X134737097Y-105190955D01*
X135230387Y-104464968D01*
X135406548Y-104460317D01*
X135582710Y-104455665D01*
X135582710Y-107537549D01*
G36*
X136927169Y-115848940D02*
X137064729Y-115849244D01*
X137193027Y-115850013D01*
X137308171Y-115851186D01*
X137406267Y-115852702D01*
X137483425Y-115854503D01*
X137535750Y-115856527D01*
X137559239Y-115858685D01*
X137591339Y-115875632D01*
X137603520Y-115891070D01*
X137608422Y-115911904D01*
X137618460Y-115960995D01*
X137632910Y-116034569D01*
X137651043Y-116128851D01*
X137672135Y-116240065D01*
X137695458Y-116364438D01*
X137718371Y-116487831D01*
X137749048Y-116653657D01*
X137774543Y-116790400D01*
X137795614Y-116900994D01*
X137813020Y-116988374D01*
X137827517Y-117055475D01*
X137839865Y-117105230D01*
X137850820Y-117140575D01*
X137861140Y-117164444D01*
X137871584Y-117179772D01*
X137882909Y-117189493D01*
X137895872Y-117196543D01*
X137902139Y-117199483D01*
X137955127Y-117223231D01*
X138027333Y-117254139D01*
X138113999Y-117290306D01*
X138210363Y-117329837D01*
X138311668Y-117370832D01*
X138413153Y-117411394D01*
X138510059Y-117449624D01*
X138597628Y-117483625D01*
X138671099Y-117511499D01*
X138725713Y-117531348D01*
X138756711Y-117541273D01*
X138761145Y-117542051D01*
X138781577Y-117533075D01*
X138825611Y-117507488D01*
X138890134Y-117467299D01*
X138972035Y-117414521D01*
X139068202Y-117351164D01*
X139175522Y-117279239D01*
X139290883Y-117200755D01*
X139315039Y-117184179D01*
X139431638Y-117104603D01*
X139540808Y-117031159D01*
X139639438Y-116965861D01*
X139724420Y-116910721D01*
X139792645Y-116867752D01*
X139841003Y-116838964D01*
X139866385Y-116826372D01*
X139868457Y-116825974D01*
X139889701Y-116837683D01*
X139932666Y-116872698D01*
X139996838Y-116930538D01*
X140081699Y-117010721D01*
X140186733Y-117112767D01*
X140311422Y-117236193D01*
X140346936Y-117271666D01*
X140462285Y-117387373D01*
X140556331Y-117482510D01*
X140631060Y-117559271D01*
X140688455Y-117619848D01*
X140730500Y-117666437D01*
X140759178Y-117701231D01*
X140776475Y-117726423D01*
X140784374Y-117744207D01*
X140785018Y-117756057D01*
X140774253Y-117777855D01*
X140746982Y-117823142D01*
X140705313Y-117888692D01*
X140651357Y-117971275D01*
X140587223Y-118067664D01*
X140515022Y-118174631D01*
X140436865Y-118288949D01*
X140432724Y-118294965D01*
X140336825Y-118435356D01*
X140255143Y-118557188D01*
X140188608Y-118659003D01*
X140138150Y-118739346D01*
X140104697Y-118796758D01*
X140089180Y-118829782D01*
X140088154Y-118835057D01*
X140094411Y-118859705D01*
X140112100Y-118910069D01*
X140139600Y-118982033D01*
X140175292Y-119071478D01*
X140217555Y-119174288D01*
X140264767Y-119286346D01*
X140277864Y-119316981D01*
X140337681Y-119455162D01*
X140386677Y-119565288D01*
X140425953Y-119649606D01*
X140456613Y-119710365D01*
X140479759Y-119749812D01*
X140496491Y-119770196D01*
X140501742Y-119773559D01*
X140525481Y-119779776D01*
X140577284Y-119790942D01*
X140653159Y-119806275D01*
X140749114Y-119824993D01*
X140861158Y-119846314D01*
X140985298Y-119869457D01*
X141081359Y-119887070D01*
X141244076Y-119916720D01*
X141377689Y-119941250D01*
X141485131Y-119961386D01*
X141569334Y-119977853D01*
X141633229Y-119991375D01*
X141679749Y-120002679D01*
X141711825Y-120012488D01*
X141732390Y-120021529D01*
X141744375Y-120030527D01*
X141750713Y-120040206D01*
X141754335Y-120051292D01*
X141754976Y-120053682D01*
X141757223Y-120077938D01*
X141759300Y-120130857D01*
X141761146Y-120208539D01*
X141762699Y-120307081D01*
X141763898Y-120422583D01*
X141764680Y-120551145D01*
X141764983Y-120686753D01*
X141764935Y-120842970D01*
X141764566Y-120969875D01*
X141763729Y-121070722D01*
X141762279Y-121148763D01*
X141760068Y-121207251D01*
X141756951Y-121249438D01*
X141752782Y-121278578D01*
X141747415Y-121297922D01*
X141740703Y-121310724D01*
X141736712Y-121315785D01*
X141723993Y-121325448D01*
X141700733Y-121335670D01*
X141663984Y-121347124D01*
X141610796Y-121360484D01*
X141538221Y-121376423D01*
X141443308Y-121395614D01*
X141323110Y-121418733D01*
X141174677Y-121446451D01*
X141122409Y-121456094D01*
X140955782Y-121487146D01*
X140819137Y-121513489D01*
X140710312Y-121535605D01*
X140627140Y-121553974D01*
X140567456Y-121569076D01*
X140529096Y-121581393D01*
X140509896Y-121591405D01*
X140508925Y-121592319D01*
X140495453Y-121615038D01*
X140472386Y-121663560D01*
X140441597Y-121733209D01*
X140404958Y-121819310D01*
X140364340Y-121917186D01*
X140321615Y-122022162D01*
X140278655Y-122129561D01*
X140237330Y-122234709D01*
X140199514Y-122332928D01*
X140167077Y-122419544D01*
X140141892Y-122489881D01*
X140125829Y-122539262D01*
X140120718Y-122562136D01*
X140129876Y-122585052D01*
X140156279Y-122632001D01*
X140198322Y-122700463D01*
X140254401Y-122787918D01*
X140322911Y-122891847D01*
X140402246Y-123009729D01*
X140454500Y-123086287D01*
X140531233Y-123199056D01*
X140601749Y-123304421D01*
X140663968Y-123399139D01*
X140715810Y-123479970D01*
X140755194Y-123543670D01*
X140780039Y-123586999D01*
X140788282Y-123606407D01*
X140777034Y-123625565D01*
X140745339Y-123664142D01*
X140696272Y-123719049D01*
X140632908Y-123787196D01*
X140558321Y-123865493D01*
X140475586Y-123950851D01*
X140387777Y-124040180D01*
X140297970Y-124130390D01*
X140209239Y-124218392D01*
X140124658Y-124301095D01*
X140047303Y-124375411D01*
X139980247Y-124438249D01*
X139926566Y-124486520D01*
X139889334Y-124517134D01*
X139872121Y-124527051D01*
X139852516Y-124518103D01*
X139809376Y-124492645D01*
X139745905Y-124452753D01*
X139665307Y-124400501D01*
X139570785Y-124337968D01*
X139465545Y-124267228D01*
X139357031Y-124193269D01*
X139244910Y-124116697D01*
X139140865Y-124046310D01*
X139048025Y-123984175D01*
X138969521Y-123932359D01*
X138908485Y-123892929D01*
X138868047Y-123867951D01*
X138851447Y-123859487D01*
X138831247Y-123866741D01*
X138787578Y-123886802D01*
X138725685Y-123917120D01*
X138650816Y-123955143D01*
X138594944Y-123984218D01*
X138506296Y-124030372D01*
X138441884Y-124062556D01*
X138397373Y-124082425D01*
X138368431Y-124091637D01*
X138350724Y-124091849D01*
X138339919Y-124084716D01*
X138338101Y-124082414D01*
X138326526Y-124060114D01*
X138304322Y-124011208D01*
X138272703Y-123938664D01*
X138232883Y-123845451D01*
X138186078Y-123734538D01*
X138133502Y-123608893D01*
X138076370Y-123471485D01*
X138015895Y-123325282D01*
X137953294Y-123173252D01*
X137889780Y-123018364D01*
X137826568Y-122863587D01*
X137764873Y-122711889D01*
X137705909Y-122566239D01*
X137650891Y-122429605D01*
X137601033Y-122304955D01*
X137557551Y-122195259D01*
X137521658Y-122103484D01*
X137494570Y-122032600D01*
X137477500Y-121985574D01*
X137471664Y-121965375D01*
X137471725Y-121964991D01*
X137488637Y-121945897D01*
X137525893Y-121915156D01*
X137576331Y-121878550D01*
X137591600Y-121868197D01*
X137775680Y-121731398D01*
X137929309Y-121586478D01*
X138054032Y-121431364D01*
X138151397Y-121263982D01*
X138222949Y-121082256D01*
X138249448Y-120985705D01*
X138270185Y-120862390D01*
X138279183Y-120723531D01*
X138276724Y-120580135D01*
X138263086Y-120443210D01*
X138238552Y-120323763D01*
X138232019Y-120301859D01*
X138154379Y-120107987D01*
X138052076Y-119931732D01*
X137927815Y-119774813D01*
X137784302Y-119638947D01*
X137624241Y-119525853D01*
X137450338Y-119437251D01*
X137265299Y-119374857D01*
X137071827Y-119340390D01*
X136872628Y-119335569D01*
X136734052Y-119350299D01*
X136531714Y-119398626D01*
X136343149Y-119475469D01*
X136170366Y-119578978D01*
X136015374Y-119707303D01*
X135880181Y-119858595D01*
X135766796Y-120031005D01*
X135677226Y-120222683D01*
X135629869Y-120366987D01*
X135612580Y-120458153D01*
X135603039Y-120570705D01*
X135601091Y-120694438D01*
X135606581Y-120819146D01*
X135619355Y-120934625D01*
X135639258Y-121030669D01*
X135639971Y-121033171D01*
X135709399Y-121225254D01*
X135802552Y-121399046D01*
X135921366Y-121557097D01*
X136067776Y-121701958D01*
X136243718Y-121836180D01*
X136255065Y-121843823D01*
X136332192Y-121898196D01*
X136383189Y-121940457D01*
X136406790Y-121969513D01*
X136408349Y-121975966D01*
X136402252Y-121996210D01*
X136384766Y-122043462D01*
X136357130Y-122114716D01*
X136320587Y-122206965D01*
X136276379Y-122317204D01*
X136225746Y-122442424D01*
X136169930Y-122579621D01*
X136110172Y-122725788D01*
X136047714Y-122877919D01*
X135983796Y-123033006D01*
X135919662Y-123188044D01*
X135856551Y-123340027D01*
X135795705Y-123485947D01*
X135738365Y-123622800D01*
X135685774Y-123747577D01*
X135639171Y-123857273D01*
X135599800Y-123948882D01*
X135568900Y-124019396D01*
X135547714Y-124065811D01*
X135537482Y-124085119D01*
X135537431Y-124085174D01*
X135525254Y-124091402D01*
X135504492Y-124089552D01*
X135470957Y-124077962D01*
X135420459Y-124054970D01*
X135348809Y-124018917D01*
X135280769Y-123983411D01*
X135200455Y-123941716D01*
X135129595Y-123906000D01*
X135073442Y-123878828D01*
X135037249Y-123862762D01*
X135026813Y-123859487D01*
X135009574Y-123868404D01*
X134968679Y-123893781D01*
X134907255Y-123933549D01*
X134828426Y-123985645D01*
X134735320Y-124048003D01*
X134631062Y-124118557D01*
X134521654Y-124193269D01*
X134409008Y-124269963D01*
X134303908Y-124340449D01*
X134209572Y-124402648D01*
X134129219Y-124454483D01*
X134066066Y-124493878D01*
X134023333Y-124518755D01*
X134004493Y-124527051D01*
X133985446Y-124515644D01*
X133945691Y-124482625D01*
X133887152Y-124429795D01*
X133811753Y-124358956D01*
X133721419Y-124271908D01*
X133618073Y-124170454D01*
X133530447Y-124083256D01*
X133420711Y-123972690D01*
X133323282Y-123872973D01*
X133240059Y-123786134D01*
X133172943Y-123714205D01*
X133123834Y-123659216D01*
X133094631Y-123623197D01*
X133086872Y-123609210D01*
X133095822Y-123589221D01*
X133121291Y-123545707D01*
X133161205Y-123481878D01*
X133213491Y-123400943D01*
X133276077Y-123306112D01*
X133346889Y-123200595D01*
X133421897Y-123090456D01*
X133498889Y-122977955D01*
X133570069Y-122873490D01*
X133633321Y-122780202D01*
X133686528Y-122701232D01*
X133727574Y-122639720D01*
X133754343Y-122598808D01*
X133764685Y-122581725D01*
X133760420Y-122563366D01*
X133745698Y-122519228D01*
X133722231Y-122453741D01*
X133691727Y-122371332D01*
X133655895Y-122276430D01*
X133616446Y-122173463D01*
X133575089Y-122066860D01*
X133533533Y-121961048D01*
X133493488Y-121860456D01*
X133456664Y-121769512D01*
X133424771Y-121692644D01*
X133399517Y-121634282D01*
X133395426Y-121625246D01*
X133361591Y-121584709D01*
X133324633Y-121565226D01*
X133296965Y-121558627D01*
X133241358Y-121547035D01*
X133161919Y-121531246D01*
X133062755Y-121512056D01*
X132947974Y-121490263D01*
X132821680Y-121466663D01*
X132720526Y-121448010D01*
X132589842Y-121423718D01*
X132468986Y-121400620D01*
X132361788Y-121379496D01*
X132272083Y-121361127D01*
X132203701Y-121346295D01*
X132160477Y-121335782D01*
X132146584Y-121331004D01*
X132141108Y-121310977D01*
X132136407Y-121262696D01*
X132132482Y-121190464D01*
X132129332Y-121098582D01*
X132126957Y-120991352D01*
X132125358Y-120873076D01*
X132124534Y-120748055D01*
X132124486Y-120620591D01*
X132125213Y-120494986D01*
X132126715Y-120375542D01*
X132128993Y-120266559D01*
X132132047Y-120172341D01*
X132135875Y-120097188D01*
X132140479Y-120045403D01*
X132145859Y-120021286D01*
X132146584Y-120020433D01*
X132166709Y-120013775D01*
X132215235Y-120002060D01*
X132288523Y-119986041D01*
X132382932Y-119966471D01*
X132494822Y-119944101D01*
X132620552Y-119919686D01*
X132756482Y-119893977D01*
X132774495Y-119890619D01*
X132931828Y-119860850D01*
X133070724Y-119833575D01*
X133188758Y-119809315D01*
X133283510Y-119788596D01*
X133352557Y-119771939D01*
X133393476Y-119759867D01*
X133403796Y-119754776D01*
X133415509Y-119734455D01*
X133438070Y-119688060D01*
X133469694Y-119619530D01*
X133508599Y-119532807D01*
X133553002Y-119431832D01*
X133601120Y-119320544D01*
X133615937Y-119285915D01*
X133672130Y-119153440D01*
X133716119Y-119047605D01*
X133749022Y-118965334D01*
X133771956Y-118903552D01*
X133786040Y-118859186D01*
X133792390Y-118829159D01*
X133792125Y-118810397D01*
X133790528Y-118805595D01*
X133777931Y-118784714D01*
X133748981Y-118740251D01*
X133705838Y-118675415D01*
X133650662Y-118593413D01*
X133585611Y-118497454D01*
X133512845Y-118390747D01*
X133434523Y-118276499D01*
X133430796Y-118271078D01*
X133352869Y-118156970D01*
X133281126Y-118050461D01*
X133217618Y-117954705D01*
X133164393Y-117872857D01*
X133123500Y-117808068D01*
X133096990Y-117763493D01*
X133086910Y-117742286D01*
X133086872Y-117741800D01*
X133098099Y-117723951D01*
X133130203Y-117685806D01*
X133180822Y-117629881D01*
X133247595Y-117558692D01*
X133328157Y-117474753D01*
X133420147Y-117380579D01*
X133521201Y-117278686D01*
X133532897Y-117266986D01*
X133648663Y-117151582D01*
X133743859Y-117057483D01*
X133820679Y-116982707D01*
X133881315Y-116925270D01*
X133927958Y-116883188D01*
X133962801Y-116854480D01*
X133988036Y-116837161D01*
X134005855Y-116829249D01*
X134017540Y-116828565D01*
X134039300Y-116839208D01*
X134084628Y-116866347D01*
X134150344Y-116907910D01*
X134233265Y-116961825D01*
X134330208Y-117026019D01*
X134437993Y-117098421D01*
X134553437Y-117176957D01*
X134571013Y-117188999D01*
X134686958Y-117267949D01*
X134795437Y-117340748D01*
X134893321Y-117405377D01*
X134977483Y-117459818D01*
X135044795Y-117502050D01*
X135092129Y-117530055D01*
X135116358Y-117541812D01*
X135117887Y-117542051D01*
X135141528Y-117535975D01*
X135190314Y-117519051D01*
X135259447Y-117493230D01*
X135344128Y-117460466D01*
X135439561Y-117422712D01*
X135540948Y-117381920D01*
X135643490Y-117340045D01*
X135742390Y-117299039D01*
X135832851Y-117260855D01*
X135910074Y-117227445D01*
X135969263Y-117200764D01*
X136005619Y-117182763D01*
X136014261Y-117177161D01*
X136021790Y-117157101D01*
X136034272Y-117108568D01*
X136050950Y-117035145D01*
X136071067Y-116940419D01*
X136093867Y-116827975D01*
X136118592Y-116701398D01*
X136144485Y-116564273D01*
X136150587Y-116531292D01*
X136180921Y-116367863D01*
X136206378Y-116233682D01*
X136227600Y-116125908D01*
X136245229Y-116041696D01*
X136259906Y-115978202D01*
X136272274Y-115932582D01*
X136282975Y-115901994D01*
X136292650Y-115883593D01*
X136298239Y-115877211D01*
X136308927Y-115869756D01*
X136324500Y-115863721D01*
X136348209Y-115858959D01*
X136383307Y-115855323D01*
X136433046Y-115852669D01*
X136500677Y-115850849D01*
X136589453Y-115849717D01*
X136702627Y-115849127D01*
X136843449Y-115848933D01*
X136927169Y-115848940D01*
X136927169Y-115848940D01*
G37*
X136927169Y-115848940D02*
X137064729Y-115849244D01*
X137193027Y-115850013D01*
X137308171Y-115851186D01*
X137406267Y-115852702D01*
X137483425Y-115854503D01*
X137535750Y-115856527D01*
X137559239Y-115858685D01*
X137591339Y-115875632D01*
X137603520Y-115891070D01*
X137608422Y-115911904D01*
X137618460Y-115960995D01*
X137632910Y-116034569D01*
X137651043Y-116128851D01*
X137672135Y-116240065D01*
X137695458Y-116364438D01*
X137718371Y-116487831D01*
X137749048Y-116653657D01*
X137774543Y-116790400D01*
X137795614Y-116900994D01*
X137813020Y-116988374D01*
X137827517Y-117055475D01*
X137839865Y-117105230D01*
X137850820Y-117140575D01*
X137861140Y-117164444D01*
X137871584Y-117179772D01*
X137882909Y-117189493D01*
X137895872Y-117196543D01*
X137902139Y-117199483D01*
X137955127Y-117223231D01*
X138027333Y-117254139D01*
X138113999Y-117290306D01*
X138210363Y-117329837D01*
X138311668Y-117370832D01*
X138413153Y-117411394D01*
X138510059Y-117449624D01*
X138597628Y-117483625D01*
X138671099Y-117511499D01*
X138725713Y-117531348D01*
X138756711Y-117541273D01*
X138761145Y-117542051D01*
X138781577Y-117533075D01*
X138825611Y-117507488D01*
X138890134Y-117467299D01*
X138972035Y-117414521D01*
X139068202Y-117351164D01*
X139175522Y-117279239D01*
X139290883Y-117200755D01*
X139315039Y-117184179D01*
X139431638Y-117104603D01*
X139540808Y-117031159D01*
X139639438Y-116965861D01*
X139724420Y-116910721D01*
X139792645Y-116867752D01*
X139841003Y-116838964D01*
X139866385Y-116826372D01*
X139868457Y-116825974D01*
X139889701Y-116837683D01*
X139932666Y-116872698D01*
X139996838Y-116930538D01*
X140081699Y-117010721D01*
X140186733Y-117112767D01*
X140311422Y-117236193D01*
X140346936Y-117271666D01*
X140462285Y-117387373D01*
X140556331Y-117482510D01*
X140631060Y-117559271D01*
X140688455Y-117619848D01*
X140730500Y-117666437D01*
X140759178Y-117701231D01*
X140776475Y-117726423D01*
X140784374Y-117744207D01*
X140785018Y-117756057D01*
X140774253Y-117777855D01*
X140746982Y-117823142D01*
X140705313Y-117888692D01*
X140651357Y-117971275D01*
X140587223Y-118067664D01*
X140515022Y-118174631D01*
X140436865Y-118288949D01*
X140432724Y-118294965D01*
X140336825Y-118435356D01*
X140255143Y-118557188D01*
X140188608Y-118659003D01*
X140138150Y-118739346D01*
X140104697Y-118796758D01*
X140089180Y-118829782D01*
X140088154Y-118835057D01*
X140094411Y-118859705D01*
X140112100Y-118910069D01*
X140139600Y-118982033D01*
X140175292Y-119071478D01*
X140217555Y-119174288D01*
X140264767Y-119286346D01*
X140277864Y-119316981D01*
X140337681Y-119455162D01*
X140386677Y-119565288D01*
X140425953Y-119649606D01*
X140456613Y-119710365D01*
X140479759Y-119749812D01*
X140496491Y-119770196D01*
X140501742Y-119773559D01*
X140525481Y-119779776D01*
X140577284Y-119790942D01*
X140653159Y-119806275D01*
X140749114Y-119824993D01*
X140861158Y-119846314D01*
X140985298Y-119869457D01*
X141081359Y-119887070D01*
X141244076Y-119916720D01*
X141377689Y-119941250D01*
X141485131Y-119961386D01*
X141569334Y-119977853D01*
X141633229Y-119991375D01*
X141679749Y-120002679D01*
X141711825Y-120012488D01*
X141732390Y-120021529D01*
X141744375Y-120030527D01*
X141750713Y-120040206D01*
X141754335Y-120051292D01*
X141754976Y-120053682D01*
X141757223Y-120077938D01*
X141759300Y-120130857D01*
X141761146Y-120208539D01*
X141762699Y-120307081D01*
X141763898Y-120422583D01*
X141764680Y-120551145D01*
X141764983Y-120686753D01*
X141764935Y-120842970D01*
X141764566Y-120969875D01*
X141763729Y-121070722D01*
X141762279Y-121148763D01*
X141760068Y-121207251D01*
X141756951Y-121249438D01*
X141752782Y-121278578D01*
X141747415Y-121297922D01*
X141740703Y-121310724D01*
X141736712Y-121315785D01*
X141723993Y-121325448D01*
X141700733Y-121335670D01*
X141663984Y-121347124D01*
X141610796Y-121360484D01*
X141538221Y-121376423D01*
X141443308Y-121395614D01*
X141323110Y-121418733D01*
X141174677Y-121446451D01*
X141122409Y-121456094D01*
X140955782Y-121487146D01*
X140819137Y-121513489D01*
X140710312Y-121535605D01*
X140627140Y-121553974D01*
X140567456Y-121569076D01*
X140529096Y-121581393D01*
X140509896Y-121591405D01*
X140508925Y-121592319D01*
X140495453Y-121615038D01*
X140472386Y-121663560D01*
X140441597Y-121733209D01*
X140404958Y-121819310D01*
X140364340Y-121917186D01*
X140321615Y-122022162D01*
X140278655Y-122129561D01*
X140237330Y-122234709D01*
X140199514Y-122332928D01*
X140167077Y-122419544D01*
X140141892Y-122489881D01*
X140125829Y-122539262D01*
X140120718Y-122562136D01*
X140129876Y-122585052D01*
X140156279Y-122632001D01*
X140198322Y-122700463D01*
X140254401Y-122787918D01*
X140322911Y-122891847D01*
X140402246Y-123009729D01*
X140454500Y-123086287D01*
X140531233Y-123199056D01*
X140601749Y-123304421D01*
X140663968Y-123399139D01*
X140715810Y-123479970D01*
X140755194Y-123543670D01*
X140780039Y-123586999D01*
X140788282Y-123606407D01*
X140777034Y-123625565D01*
X140745339Y-123664142D01*
X140696272Y-123719049D01*
X140632908Y-123787196D01*
X140558321Y-123865493D01*
X140475586Y-123950851D01*
X140387777Y-124040180D01*
X140297970Y-124130390D01*
X140209239Y-124218392D01*
X140124658Y-124301095D01*
X140047303Y-124375411D01*
X139980247Y-124438249D01*
X139926566Y-124486520D01*
X139889334Y-124517134D01*
X139872121Y-124527051D01*
X139852516Y-124518103D01*
X139809376Y-124492645D01*
X139745905Y-124452753D01*
X139665307Y-124400501D01*
X139570785Y-124337968D01*
X139465545Y-124267228D01*
X139357031Y-124193269D01*
X139244910Y-124116697D01*
X139140865Y-124046310D01*
X139048025Y-123984175D01*
X138969521Y-123932359D01*
X138908485Y-123892929D01*
X138868047Y-123867951D01*
X138851447Y-123859487D01*
X138831247Y-123866741D01*
X138787578Y-123886802D01*
X138725685Y-123917120D01*
X138650816Y-123955143D01*
X138594944Y-123984218D01*
X138506296Y-124030372D01*
X138441884Y-124062556D01*
X138397373Y-124082425D01*
X138368431Y-124091637D01*
X138350724Y-124091849D01*
X138339919Y-124084716D01*
X138338101Y-124082414D01*
X138326526Y-124060114D01*
X138304322Y-124011208D01*
X138272703Y-123938664D01*
X138232883Y-123845451D01*
X138186078Y-123734538D01*
X138133502Y-123608893D01*
X138076370Y-123471485D01*
X138015895Y-123325282D01*
X137953294Y-123173252D01*
X137889780Y-123018364D01*
X137826568Y-122863587D01*
X137764873Y-122711889D01*
X137705909Y-122566239D01*
X137650891Y-122429605D01*
X137601033Y-122304955D01*
X137557551Y-122195259D01*
X137521658Y-122103484D01*
X137494570Y-122032600D01*
X137477500Y-121985574D01*
X137471664Y-121965375D01*
X137471725Y-121964991D01*
X137488637Y-121945897D01*
X137525893Y-121915156D01*
X137576331Y-121878550D01*
X137591600Y-121868197D01*
X137775680Y-121731398D01*
X137929309Y-121586478D01*
X138054032Y-121431364D01*
X138151397Y-121263982D01*
X138222949Y-121082256D01*
X138249448Y-120985705D01*
X138270185Y-120862390D01*
X138279183Y-120723531D01*
X138276724Y-120580135D01*
X138263086Y-120443210D01*
X138238552Y-120323763D01*
X138232019Y-120301859D01*
X138154379Y-120107987D01*
X138052076Y-119931732D01*
X137927815Y-119774813D01*
X137784302Y-119638947D01*
X137624241Y-119525853D01*
X137450338Y-119437251D01*
X137265299Y-119374857D01*
X137071827Y-119340390D01*
X136872628Y-119335569D01*
X136734052Y-119350299D01*
X136531714Y-119398626D01*
X136343149Y-119475469D01*
X136170366Y-119578978D01*
X136015374Y-119707303D01*
X135880181Y-119858595D01*
X135766796Y-120031005D01*
X135677226Y-120222683D01*
X135629869Y-120366987D01*
X135612580Y-120458153D01*
X135603039Y-120570705D01*
X135601091Y-120694438D01*
X135606581Y-120819146D01*
X135619355Y-120934625D01*
X135639258Y-121030669D01*
X135639971Y-121033171D01*
X135709399Y-121225254D01*
X135802552Y-121399046D01*
X135921366Y-121557097D01*
X136067776Y-121701958D01*
X136243718Y-121836180D01*
X136255065Y-121843823D01*
X136332192Y-121898196D01*
X136383189Y-121940457D01*
X136406790Y-121969513D01*
X136408349Y-121975966D01*
X136402252Y-121996210D01*
X136384766Y-122043462D01*
X136357130Y-122114716D01*
X136320587Y-122206965D01*
X136276379Y-122317204D01*
X136225746Y-122442424D01*
X136169930Y-122579621D01*
X136110172Y-122725788D01*
X136047714Y-122877919D01*
X135983796Y-123033006D01*
X135919662Y-123188044D01*
X135856551Y-123340027D01*
X135795705Y-123485947D01*
X135738365Y-123622800D01*
X135685774Y-123747577D01*
X135639171Y-123857273D01*
X135599800Y-123948882D01*
X135568900Y-124019396D01*
X135547714Y-124065811D01*
X135537482Y-124085119D01*
X135537431Y-124085174D01*
X135525254Y-124091402D01*
X135504492Y-124089552D01*
X135470957Y-124077962D01*
X135420459Y-124054970D01*
X135348809Y-124018917D01*
X135280769Y-123983411D01*
X135200455Y-123941716D01*
X135129595Y-123906000D01*
X135073442Y-123878828D01*
X135037249Y-123862762D01*
X135026813Y-123859487D01*
X135009574Y-123868404D01*
X134968679Y-123893781D01*
X134907255Y-123933549D01*
X134828426Y-123985645D01*
X134735320Y-124048003D01*
X134631062Y-124118557D01*
X134521654Y-124193269D01*
X134409008Y-124269963D01*
X134303908Y-124340449D01*
X134209572Y-124402648D01*
X134129219Y-124454483D01*
X134066066Y-124493878D01*
X134023333Y-124518755D01*
X134004493Y-124527051D01*
X133985446Y-124515644D01*
X133945691Y-124482625D01*
X133887152Y-124429795D01*
X133811753Y-124358956D01*
X133721419Y-124271908D01*
X133618073Y-124170454D01*
X133530447Y-124083256D01*
X133420711Y-123972690D01*
X133323282Y-123872973D01*
X133240059Y-123786134D01*
X133172943Y-123714205D01*
X133123834Y-123659216D01*
X133094631Y-123623197D01*
X133086872Y-123609210D01*
X133095822Y-123589221D01*
X133121291Y-123545707D01*
X133161205Y-123481878D01*
X133213491Y-123400943D01*
X133276077Y-123306112D01*
X133346889Y-123200595D01*
X133421897Y-123090456D01*
X133498889Y-122977955D01*
X133570069Y-122873490D01*
X133633321Y-122780202D01*
X133686528Y-122701232D01*
X133727574Y-122639720D01*
X133754343Y-122598808D01*
X133764685Y-122581725D01*
X133760420Y-122563366D01*
X133745698Y-122519228D01*
X133722231Y-122453741D01*
X133691727Y-122371332D01*
X133655895Y-122276430D01*
X133616446Y-122173463D01*
X133575089Y-122066860D01*
X133533533Y-121961048D01*
X133493488Y-121860456D01*
X133456664Y-121769512D01*
X133424771Y-121692644D01*
X133399517Y-121634282D01*
X133395426Y-121625246D01*
X133361591Y-121584709D01*
X133324633Y-121565226D01*
X133296965Y-121558627D01*
X133241358Y-121547035D01*
X133161919Y-121531246D01*
X133062755Y-121512056D01*
X132947974Y-121490263D01*
X132821680Y-121466663D01*
X132720526Y-121448010D01*
X132589842Y-121423718D01*
X132468986Y-121400620D01*
X132361788Y-121379496D01*
X132272083Y-121361127D01*
X132203701Y-121346295D01*
X132160477Y-121335782D01*
X132146584Y-121331004D01*
X132141108Y-121310977D01*
X132136407Y-121262696D01*
X132132482Y-121190464D01*
X132129332Y-121098582D01*
X132126957Y-120991352D01*
X132125358Y-120873076D01*
X132124534Y-120748055D01*
X132124486Y-120620591D01*
X132125213Y-120494986D01*
X132126715Y-120375542D01*
X132128993Y-120266559D01*
X132132047Y-120172341D01*
X132135875Y-120097188D01*
X132140479Y-120045403D01*
X132145859Y-120021286D01*
X132146584Y-120020433D01*
X132166709Y-120013775D01*
X132215235Y-120002060D01*
X132288523Y-119986041D01*
X132382932Y-119966471D01*
X132494822Y-119944101D01*
X132620552Y-119919686D01*
X132756482Y-119893977D01*
X132774495Y-119890619D01*
X132931828Y-119860850D01*
X133070724Y-119833575D01*
X133188758Y-119809315D01*
X133283510Y-119788596D01*
X133352557Y-119771939D01*
X133393476Y-119759867D01*
X133403796Y-119754776D01*
X133415509Y-119734455D01*
X133438070Y-119688060D01*
X133469694Y-119619530D01*
X133508599Y-119532807D01*
X133553002Y-119431832D01*
X133601120Y-119320544D01*
X133615937Y-119285915D01*
X133672130Y-119153440D01*
X133716119Y-119047605D01*
X133749022Y-118965334D01*
X133771956Y-118903552D01*
X133786040Y-118859186D01*
X133792390Y-118829159D01*
X133792125Y-118810397D01*
X133790528Y-118805595D01*
X133777931Y-118784714D01*
X133748981Y-118740251D01*
X133705838Y-118675415D01*
X133650662Y-118593413D01*
X133585611Y-118497454D01*
X133512845Y-118390747D01*
X133434523Y-118276499D01*
X133430796Y-118271078D01*
X133352869Y-118156970D01*
X133281126Y-118050461D01*
X133217618Y-117954705D01*
X133164393Y-117872857D01*
X133123500Y-117808068D01*
X133096990Y-117763493D01*
X133086910Y-117742286D01*
X133086872Y-117741800D01*
X133098099Y-117723951D01*
X133130203Y-117685806D01*
X133180822Y-117629881D01*
X133247595Y-117558692D01*
X133328157Y-117474753D01*
X133420147Y-117380579D01*
X133521201Y-117278686D01*
X133532897Y-117266986D01*
X133648663Y-117151582D01*
X133743859Y-117057483D01*
X133820679Y-116982707D01*
X133881315Y-116925270D01*
X133927958Y-116883188D01*
X133962801Y-116854480D01*
X133988036Y-116837161D01*
X134005855Y-116829249D01*
X134017540Y-116828565D01*
X134039300Y-116839208D01*
X134084628Y-116866347D01*
X134150344Y-116907910D01*
X134233265Y-116961825D01*
X134330208Y-117026019D01*
X134437993Y-117098421D01*
X134553437Y-117176957D01*
X134571013Y-117188999D01*
X134686958Y-117267949D01*
X134795437Y-117340748D01*
X134893321Y-117405377D01*
X134977483Y-117459818D01*
X135044795Y-117502050D01*
X135092129Y-117530055D01*
X135116358Y-117541812D01*
X135117887Y-117542051D01*
X135141528Y-117535975D01*
X135190314Y-117519051D01*
X135259447Y-117493230D01*
X135344128Y-117460466D01*
X135439561Y-117422712D01*
X135540948Y-117381920D01*
X135643490Y-117340045D01*
X135742390Y-117299039D01*
X135832851Y-117260855D01*
X135910074Y-117227445D01*
X135969263Y-117200764D01*
X136005619Y-117182763D01*
X136014261Y-117177161D01*
X136021790Y-117157101D01*
X136034272Y-117108568D01*
X136050950Y-117035145D01*
X136071067Y-116940419D01*
X136093867Y-116827975D01*
X136118592Y-116701398D01*
X136144485Y-116564273D01*
X136150587Y-116531292D01*
X136180921Y-116367863D01*
X136206378Y-116233682D01*
X136227600Y-116125908D01*
X136245229Y-116041696D01*
X136259906Y-115978202D01*
X136272274Y-115932582D01*
X136282975Y-115901994D01*
X136292650Y-115883593D01*
X136298239Y-115877211D01*
X136308927Y-115869756D01*
X136324500Y-115863721D01*
X136348209Y-115858959D01*
X136383307Y-115855323D01*
X136433046Y-115852669D01*
X136500677Y-115850849D01*
X136589453Y-115849717D01*
X136702627Y-115849127D01*
X136843449Y-115848933D01*
X136927169Y-115848940D01*
G36*
X130946642Y-123754305D02*
X131050420Y-123794547D01*
X131138702Y-123856322D01*
X131209079Y-123935628D01*
X131259141Y-124028461D01*
X131286480Y-124130819D01*
X131288686Y-124238697D01*
X131263349Y-124348095D01*
X131234422Y-124411883D01*
X131165319Y-124509766D01*
X131078823Y-124581159D01*
X130974584Y-124626277D01*
X130854687Y-124645217D01*
X130774128Y-124645164D01*
X130708619Y-124634238D01*
X130663447Y-124618990D01*
X130562648Y-124563356D01*
X130482703Y-124487641D01*
X130424696Y-124396608D01*
X130389711Y-124295019D01*
X130379783Y-124197019D01*
X130497848Y-124197019D01*
X130511775Y-124292900D01*
X130551192Y-124376543D01*
X130611209Y-124444931D01*
X130686934Y-124495046D01*
X130773476Y-124523868D01*
X130865944Y-124528379D01*
X130959447Y-124505562D01*
X130981687Y-124495591D01*
X131062393Y-124440250D01*
X131120782Y-124368211D01*
X131156521Y-124285027D01*
X131169279Y-124196250D01*
X131158723Y-124107434D01*
X131124521Y-124024131D01*
X131066343Y-123951895D01*
X131016449Y-123914084D01*
X130922989Y-123872609D01*
X130828601Y-123859612D01*
X130737878Y-123872588D01*
X130655411Y-123909032D01*
X130585791Y-123966439D01*
X130533610Y-124042303D01*
X130503460Y-124134121D01*
X130497848Y-124197019D01*
X130379783Y-124197019D01*
X130378832Y-124187637D01*
X130393141Y-124079222D01*
X130433723Y-123974539D01*
X130496294Y-123884361D01*
X130578147Y-123814079D01*
X130678119Y-123765259D01*
X130788151Y-123741401D01*
X130829778Y-123739600D01*
X130946642Y-123754305D01*
X130946642Y-123754305D01*
G37*
X130946642Y-123754305D02*
X131050420Y-123794547D01*
X131138702Y-123856322D01*
X131209079Y-123935628D01*
X131259141Y-124028461D01*
X131286480Y-124130819D01*
X131288686Y-124238697D01*
X131263349Y-124348095D01*
X131234422Y-124411883D01*
X131165319Y-124509766D01*
X131078823Y-124581159D01*
X130974584Y-124626277D01*
X130854687Y-124645217D01*
X130774128Y-124645164D01*
X130708619Y-124634238D01*
X130663447Y-124618990D01*
X130562648Y-124563356D01*
X130482703Y-124487641D01*
X130424696Y-124396608D01*
X130389711Y-124295019D01*
X130379783Y-124197019D01*
X130497848Y-124197019D01*
X130511775Y-124292900D01*
X130551192Y-124376543D01*
X130611209Y-124444931D01*
X130686934Y-124495046D01*
X130773476Y-124523868D01*
X130865944Y-124528379D01*
X130959447Y-124505562D01*
X130981687Y-124495591D01*
X131062393Y-124440250D01*
X131120782Y-124368211D01*
X131156521Y-124285027D01*
X131169279Y-124196250D01*
X131158723Y-124107434D01*
X131124521Y-124024131D01*
X131066343Y-123951895D01*
X131016449Y-123914084D01*
X130922989Y-123872609D01*
X130828601Y-123859612D01*
X130737878Y-123872588D01*
X130655411Y-123909032D01*
X130585791Y-123966439D01*
X130533610Y-124042303D01*
X130503460Y-124134121D01*
X130497848Y-124197019D01*
X130379783Y-124197019D01*
X130378832Y-124187637D01*
X130393141Y-124079222D01*
X130433723Y-123974539D01*
X130496294Y-123884361D01*
X130578147Y-123814079D01*
X130678119Y-123765259D01*
X130788151Y-123741401D01*
X130829778Y-123739600D01*
X130946642Y-123754305D01*
G36*
X127048408Y-115658697D02*
X127415123Y-115710657D01*
X127777424Y-115792248D01*
X128133620Y-115903391D01*
X128482018Y-116044005D01*
X128820927Y-116214011D01*
X129045633Y-116346696D01*
X129256237Y-116489623D01*
X129470993Y-116654979D01*
X129682077Y-116835903D01*
X129881667Y-117025531D01*
X130061939Y-117216999D01*
X130135240Y-117302614D01*
X130367165Y-117607222D01*
X130571563Y-117926602D01*
X130748049Y-118259064D01*
X130896245Y-118602916D01*
X131015766Y-118956464D01*
X131106233Y-119318017D01*
X131167262Y-119685883D01*
X131198473Y-120058370D01*
X131199484Y-120433785D01*
X131169913Y-120810437D01*
X131109379Y-121186634D01*
X131060133Y-121403153D01*
X130953166Y-121763160D01*
X130817564Y-122110962D01*
X130654553Y-122445137D01*
X130465359Y-122764267D01*
X130251209Y-123066930D01*
X130013329Y-123351706D01*
X129752947Y-123617176D01*
X129471287Y-123861920D01*
X129169577Y-124084516D01*
X128849043Y-124283545D01*
X128510912Y-124457587D01*
X128367090Y-124521557D01*
X128270381Y-124559370D01*
X128195267Y-124579829D01*
X128136624Y-124582726D01*
X128089323Y-124567852D01*
X128048238Y-124534996D01*
X128025241Y-124507625D01*
X128015232Y-124487229D01*
X127994775Y-124439325D01*
X127964721Y-124366072D01*
X127925922Y-124269632D01*
X127879231Y-124152167D01*
X127825498Y-124015838D01*
X127765575Y-123862806D01*
X127700315Y-123695234D01*
X127630568Y-123515281D01*
X127557187Y-123325111D01*
X127481023Y-123126883D01*
X127476220Y-123114355D01*
X127384216Y-122874268D01*
X127303009Y-122662010D01*
X127232029Y-122475763D01*
X127170703Y-122313712D01*
X127118460Y-122174041D01*
X127074727Y-122054934D01*
X127038932Y-121954573D01*
X127010505Y-121871144D01*
X126988872Y-121802830D01*
X126973461Y-121747814D01*
X126963702Y-121704282D01*
X126959022Y-121670415D01*
X126958849Y-121644399D01*
X126962612Y-121624418D01*
X126969738Y-121608654D01*
X126979655Y-121595292D01*
X126991792Y-121582515D01*
X126993365Y-121580941D01*
X127021941Y-121559014D01*
X127071448Y-121527508D01*
X127134394Y-121490997D01*
X127189633Y-121461133D01*
X127369618Y-121351254D01*
X127524309Y-121222696D01*
X127654947Y-121074208D01*
X127762775Y-120904545D01*
X127783530Y-120864312D01*
X127832584Y-120760739D01*
X127868310Y-120671253D01*
X127892701Y-120586900D01*
X127907750Y-120498726D01*
X127915450Y-120397777D01*
X127917795Y-120275100D01*
X127917812Y-120261062D01*
X127916727Y-120152977D01*
X127913029Y-120068971D01*
X127906052Y-120001432D01*
X127895132Y-119942750D01*
X127887292Y-119911812D01*
X127817672Y-119715594D01*
X127722399Y-119536237D01*
X127603740Y-119375577D01*
X127463965Y-119235450D01*
X127305341Y-119117690D01*
X127130137Y-119024132D01*
X126940620Y-118956613D01*
X126739058Y-118916967D01*
X126647812Y-118908863D01*
X126444969Y-118912587D01*
X126249599Y-118945940D01*
X126064023Y-119007222D01*
X125890562Y-119094734D01*
X125731538Y-119206776D01*
X125589272Y-119341648D01*
X125466086Y-119497650D01*
X125364302Y-119673082D01*
X125286241Y-119866244D01*
X125270660Y-119917262D01*
X125250500Y-120015071D01*
X125238285Y-120133146D01*
X125234104Y-120260991D01*
X125238044Y-120388110D01*
X125250195Y-120504006D01*
X125265089Y-120578562D01*
X125331997Y-120774926D01*
X125425845Y-120957188D01*
X125544380Y-121122650D01*
X125685351Y-121268614D01*
X125846506Y-121392381D01*
X126025593Y-121491252D01*
X126027444Y-121492096D01*
X126083874Y-121521153D01*
X126133161Y-121552390D01*
X126160284Y-121574900D01*
X126173738Y-121589076D01*
X126185311Y-121602404D01*
X126194441Y-121616718D01*
X126200559Y-121633848D01*
X126203102Y-121655629D01*
X126201504Y-121683891D01*
X126195199Y-121720469D01*
X126183621Y-121767193D01*
X126166205Y-121825896D01*
X126142386Y-121898412D01*
X126111599Y-121986571D01*
X126073276Y-122092208D01*
X126026854Y-122217153D01*
X125971766Y-122363239D01*
X125907448Y-122532300D01*
X125833333Y-122726166D01*
X125748856Y-122946671D01*
X125687605Y-123106500D01*
X125590544Y-123359391D01*
X125504078Y-123583765D01*
X125427710Y-123780855D01*
X125360946Y-123951893D01*
X125303292Y-124098112D01*
X125254253Y-124220746D01*
X125213333Y-124321028D01*
X125180039Y-124400191D01*
X125153874Y-124459467D01*
X125134345Y-124500091D01*
X125120957Y-124523295D01*
X125117235Y-124527950D01*
X125057750Y-124567807D01*
X124984512Y-124580292D01*
X124901562Y-124565109D01*
X124761903Y-124511739D01*
X124604783Y-124440025D01*
X124435968Y-124353268D01*
X124261224Y-124254770D01*
X124086315Y-124147834D01*
X123917007Y-124035762D01*
X123759065Y-123921856D01*
X123703000Y-123878598D01*
X123628418Y-123816037D01*
X123538623Y-123734620D01*
X123438686Y-123639495D01*
X123333679Y-123535812D01*
X123228673Y-123428719D01*
X123128740Y-123323366D01*
X123038952Y-123224901D01*
X122964379Y-123138474D01*
X122923124Y-123086812D01*
X122698017Y-122765264D01*
X122502251Y-122432216D01*
X122336078Y-122088767D01*
X122199751Y-121736014D01*
X122093524Y-121375055D01*
X122017650Y-121006988D01*
X121972382Y-120632912D01*
X121957973Y-120253924D01*
X121974677Y-119871122D01*
X122022746Y-119485604D01*
X122053678Y-119316500D01*
X122141747Y-118957412D01*
X122259291Y-118607708D01*
X122404966Y-118269139D01*
X122577429Y-117943453D01*
X122775335Y-117632400D01*
X122997341Y-117337730D01*
X123242104Y-117061192D01*
X123508279Y-116804536D01*
X123794523Y-116569511D01*
X124099492Y-116357866D01*
X124421844Y-116171352D01*
X124499892Y-116131397D01*
X124850144Y-115973691D01*
X125207822Y-115846178D01*
X125571235Y-115748778D01*
X125938692Y-115681409D01*
X126308501Y-115643993D01*
X126678970Y-115636449D01*
X127048408Y-115658697D01*
X127048408Y-115658697D01*
G37*
X127048408Y-115658697D02*
X127415123Y-115710657D01*
X127777424Y-115792248D01*
X128133620Y-115903391D01*
X128482018Y-116044005D01*
X128820927Y-116214011D01*
X129045633Y-116346696D01*
X129256237Y-116489623D01*
X129470993Y-116654979D01*
X129682077Y-116835903D01*
X129881667Y-117025531D01*
X130061939Y-117216999D01*
X130135240Y-117302614D01*
X130367165Y-117607222D01*
X130571563Y-117926602D01*
X130748049Y-118259064D01*
X130896245Y-118602916D01*
X131015766Y-118956464D01*
X131106233Y-119318017D01*
X131167262Y-119685883D01*
X131198473Y-120058370D01*
X131199484Y-120433785D01*
X131169913Y-120810437D01*
X131109379Y-121186634D01*
X131060133Y-121403153D01*
X130953166Y-121763160D01*
X130817564Y-122110962D01*
X130654553Y-122445137D01*
X130465359Y-122764267D01*
X130251209Y-123066930D01*
X130013329Y-123351706D01*
X129752947Y-123617176D01*
X129471287Y-123861920D01*
X129169577Y-124084516D01*
X128849043Y-124283545D01*
X128510912Y-124457587D01*
X128367090Y-124521557D01*
X128270381Y-124559370D01*
X128195267Y-124579829D01*
X128136624Y-124582726D01*
X128089323Y-124567852D01*
X128048238Y-124534996D01*
X128025241Y-124507625D01*
X128015232Y-124487229D01*
X127994775Y-124439325D01*
X127964721Y-124366072D01*
X127925922Y-124269632D01*
X127879231Y-124152167D01*
X127825498Y-124015838D01*
X127765575Y-123862806D01*
X127700315Y-123695234D01*
X127630568Y-123515281D01*
X127557187Y-123325111D01*
X127481023Y-123126883D01*
X127476220Y-123114355D01*
X127384216Y-122874268D01*
X127303009Y-122662010D01*
X127232029Y-122475763D01*
X127170703Y-122313712D01*
X127118460Y-122174041D01*
X127074727Y-122054934D01*
X127038932Y-121954573D01*
X127010505Y-121871144D01*
X126988872Y-121802830D01*
X126973461Y-121747814D01*
X126963702Y-121704282D01*
X126959022Y-121670415D01*
X126958849Y-121644399D01*
X126962612Y-121624418D01*
X126969738Y-121608654D01*
X126979655Y-121595292D01*
X126991792Y-121582515D01*
X126993365Y-121580941D01*
X127021941Y-121559014D01*
X127071448Y-121527508D01*
X127134394Y-121490997D01*
X127189633Y-121461133D01*
X127369618Y-121351254D01*
X127524309Y-121222696D01*
X127654947Y-121074208D01*
X127762775Y-120904545D01*
X127783530Y-120864312D01*
X127832584Y-120760739D01*
X127868310Y-120671253D01*
X127892701Y-120586900D01*
X127907750Y-120498726D01*
X127915450Y-120397777D01*
X127917795Y-120275100D01*
X127917812Y-120261062D01*
X127916727Y-120152977D01*
X127913029Y-120068971D01*
X127906052Y-120001432D01*
X127895132Y-119942750D01*
X127887292Y-119911812D01*
X127817672Y-119715594D01*
X127722399Y-119536237D01*
X127603740Y-119375577D01*
X127463965Y-119235450D01*
X127305341Y-119117690D01*
X127130137Y-119024132D01*
X126940620Y-118956613D01*
X126739058Y-118916967D01*
X126647812Y-118908863D01*
X126444969Y-118912587D01*
X126249599Y-118945940D01*
X126064023Y-119007222D01*
X125890562Y-119094734D01*
X125731538Y-119206776D01*
X125589272Y-119341648D01*
X125466086Y-119497650D01*
X125364302Y-119673082D01*
X125286241Y-119866244D01*
X125270660Y-119917262D01*
X125250500Y-120015071D01*
X125238285Y-120133146D01*
X125234104Y-120260991D01*
X125238044Y-120388110D01*
X125250195Y-120504006D01*
X125265089Y-120578562D01*
X125331997Y-120774926D01*
X125425845Y-120957188D01*
X125544380Y-121122650D01*
X125685351Y-121268614D01*
X125846506Y-121392381D01*
X126025593Y-121491252D01*
X126027444Y-121492096D01*
X126083874Y-121521153D01*
X126133161Y-121552390D01*
X126160284Y-121574900D01*
X126173738Y-121589076D01*
X126185311Y-121602404D01*
X126194441Y-121616718D01*
X126200559Y-121633848D01*
X126203102Y-121655629D01*
X126201504Y-121683891D01*
X126195199Y-121720469D01*
X126183621Y-121767193D01*
X126166205Y-121825896D01*
X126142386Y-121898412D01*
X126111599Y-121986571D01*
X126073276Y-122092208D01*
X126026854Y-122217153D01*
X125971766Y-122363239D01*
X125907448Y-122532300D01*
X125833333Y-122726166D01*
X125748856Y-122946671D01*
X125687605Y-123106500D01*
X125590544Y-123359391D01*
X125504078Y-123583765D01*
X125427710Y-123780855D01*
X125360946Y-123951893D01*
X125303292Y-124098112D01*
X125254253Y-124220746D01*
X125213333Y-124321028D01*
X125180039Y-124400191D01*
X125153874Y-124459467D01*
X125134345Y-124500091D01*
X125120957Y-124523295D01*
X125117235Y-124527950D01*
X125057750Y-124567807D01*
X124984512Y-124580292D01*
X124901562Y-124565109D01*
X124761903Y-124511739D01*
X124604783Y-124440025D01*
X124435968Y-124353268D01*
X124261224Y-124254770D01*
X124086315Y-124147834D01*
X123917007Y-124035762D01*
X123759065Y-123921856D01*
X123703000Y-123878598D01*
X123628418Y-123816037D01*
X123538623Y-123734620D01*
X123438686Y-123639495D01*
X123333679Y-123535812D01*
X123228673Y-123428719D01*
X123128740Y-123323366D01*
X123038952Y-123224901D01*
X122964379Y-123138474D01*
X122923124Y-123086812D01*
X122698017Y-122765264D01*
X122502251Y-122432216D01*
X122336078Y-122088767D01*
X122199751Y-121736014D01*
X122093524Y-121375055D01*
X122017650Y-121006988D01*
X121972382Y-120632912D01*
X121957973Y-120253924D01*
X121974677Y-119871122D01*
X122022746Y-119485604D01*
X122053678Y-119316500D01*
X122141747Y-118957412D01*
X122259291Y-118607708D01*
X122404966Y-118269139D01*
X122577429Y-117943453D01*
X122775335Y-117632400D01*
X122997341Y-117337730D01*
X123242104Y-117061192D01*
X123508279Y-116804536D01*
X123794523Y-116569511D01*
X124099492Y-116357866D01*
X124421844Y-116171352D01*
X124499892Y-116131397D01*
X124850144Y-115973691D01*
X125207822Y-115846178D01*
X125571235Y-115748778D01*
X125938692Y-115681409D01*
X126308501Y-115643993D01*
X126678970Y-115636449D01*
X127048408Y-115658697D01*
G36*
X130800510Y-123938514D02*
X130869664Y-123941794D01*
X130914984Y-123946680D01*
X130944381Y-123955397D01*
X130965765Y-123970173D01*
X130984539Y-123990308D01*
X131012955Y-124044038D01*
X131012924Y-124100117D01*
X130984986Y-124150267D01*
X130973360Y-124161195D01*
X130953844Y-124184990D01*
X130957889Y-124198071D01*
X130971649Y-124215614D01*
X130994059Y-124252413D01*
X131020057Y-124299088D01*
X131044582Y-124346258D01*
X131062571Y-124384541D01*
X131069000Y-124403984D01*
X131054929Y-124409307D01*
X131019908Y-124412200D01*
X131007425Y-124412375D01*
X130964940Y-124408852D01*
X130941175Y-124393273D01*
X130925855Y-124364100D01*
X130894228Y-124303819D01*
X130858039Y-124259918D01*
X130822876Y-124238747D01*
X130814677Y-124237750D01*
X130796623Y-124243041D01*
X130786403Y-124263789D01*
X130780984Y-124307303D01*
X130780110Y-124321093D01*
X130775312Y-124404437D01*
X130656250Y-124414291D01*
X130656250Y-124085644D01*
X130783250Y-124085644D01*
X130783250Y-124085883D01*
X130786191Y-124124018D01*
X130799089Y-124139803D01*
X130820993Y-124142500D01*
X130859498Y-124132435D01*
X130879604Y-124117356D01*
X130890720Y-124084987D01*
X130875342Y-124055569D01*
X130838395Y-124036633D01*
X130825305Y-124034289D01*
X130797289Y-124034071D01*
X130785600Y-124048331D01*
X130783250Y-124085644D01*
X130656250Y-124085644D01*
X130656250Y-123932965D01*
X130800510Y-123938514D01*
X130800510Y-123938514D01*
G37*
X130800510Y-123938514D02*
X130869664Y-123941794D01*
X130914984Y-123946680D01*
X130944381Y-123955397D01*
X130965765Y-123970173D01*
X130984539Y-123990308D01*
X131012955Y-124044038D01*
X131012924Y-124100117D01*
X130984986Y-124150267D01*
X130973360Y-124161195D01*
X130953844Y-124184990D01*
X130957889Y-124198071D01*
X130971649Y-124215614D01*
X130994059Y-124252413D01*
X131020057Y-124299088D01*
X131044582Y-124346258D01*
X131062571Y-124384541D01*
X131069000Y-124403984D01*
X131054929Y-124409307D01*
X131019908Y-124412200D01*
X131007425Y-124412375D01*
X130964940Y-124408852D01*
X130941175Y-124393273D01*
X130925855Y-124364100D01*
X130894228Y-124303819D01*
X130858039Y-124259918D01*
X130822876Y-124238747D01*
X130814677Y-124237750D01*
X130796623Y-124243041D01*
X130786403Y-124263789D01*
X130780984Y-124307303D01*
X130780110Y-124321093D01*
X130775312Y-124404437D01*
X130656250Y-124414291D01*
X130656250Y-124085644D01*
X130783250Y-124085644D01*
X130783250Y-124085883D01*
X130786191Y-124124018D01*
X130799089Y-124139803D01*
X130820993Y-124142500D01*
X130859498Y-124132435D01*
X130879604Y-124117356D01*
X130890720Y-124084987D01*
X130875342Y-124055569D01*
X130838395Y-124036633D01*
X130825305Y-124034289D01*
X130797289Y-124034071D01*
X130785600Y-124048331D01*
X130783250Y-124085644D01*
X130656250Y-124085644D01*
X130656250Y-123932965D01*
X130800510Y-123938514D01*
D12*
X136079381Y-90033333D02*
X136793667Y-90033333D01*
X136936524Y-90080953D01*
X137031762Y-90176191D01*
X137079381Y-90319048D01*
X137079381Y-90414286D01*
X137079381Y-89033333D02*
X137079381Y-89604762D01*
X137079381Y-89319048D02*
X136079381Y-89319048D01*
X136222238Y-89414286D01*
X136317476Y-89509524D01*
X136365095Y-89604762D01*
X189658667Y-77049381D02*
X189658667Y-77763667D01*
X189611047Y-77906524D01*
X189515809Y-78001762D01*
X189372952Y-78049381D01*
X189277714Y-78049381D01*
X190087238Y-77144619D02*
X190134857Y-77097000D01*
X190230095Y-77049381D01*
X190468191Y-77049381D01*
X190563429Y-77097000D01*
X190611048Y-77144619D01*
X190658667Y-77239857D01*
X190658667Y-77335095D01*
X190611048Y-77477952D01*
X190039619Y-78049381D01*
X190658667Y-78049381D01*
X156675381Y-57953333D02*
X157389667Y-57953333D01*
X157532524Y-58000953D01*
X157627762Y-58096191D01*
X157675381Y-58239048D01*
X157675381Y-58334286D01*
X156675381Y-57572381D02*
X156675381Y-56953333D01*
X157056333Y-57286667D01*
X157056333Y-57143809D01*
X157103952Y-57048571D01*
X157151571Y-57000952D01*
X157246810Y-56953333D01*
X157484905Y-56953333D01*
X157580143Y-57000952D01*
X157627762Y-57048571D01*
X157675381Y-57143809D01*
X157675381Y-57429524D01*
X157627762Y-57524762D01*
X157580143Y-57572381D01*
X151050667Y-108164381D02*
X151050667Y-108878667D01*
X151003047Y-109021524D01*
X150907809Y-109116762D01*
X150764952Y-109164381D01*
X150669714Y-109164381D01*
X151955429Y-108497714D02*
X151955429Y-109164381D01*
X151717333Y-108116762D02*
X151479238Y-108831048D01*
X152098286Y-108831048D01*
X136848762Y-81132619D02*
X136753524Y-81085000D01*
X136658286Y-80989762D01*
X136515429Y-80846905D01*
X136420190Y-80799286D01*
X136324952Y-80799286D01*
X136372571Y-81037381D02*
X136277333Y-80989762D01*
X136182095Y-80894524D01*
X136134476Y-80704048D01*
X136134476Y-80370714D01*
X136182095Y-80180238D01*
X136277333Y-80085000D01*
X136372571Y-80037381D01*
X136563048Y-80037381D01*
X136658286Y-80085000D01*
X136753524Y-80180238D01*
X136801143Y-80370714D01*
X136801143Y-80704048D01*
X136753524Y-80894524D01*
X136658286Y-80989762D01*
X136563048Y-81037381D01*
X136372571Y-81037381D01*
X137753524Y-81037381D02*
X137182095Y-81037381D01*
X137467809Y-81037381D02*
X137467809Y-80037381D01*
X137372571Y-80180238D01*
X137277333Y-80275476D01*
X137182095Y-80323095D01*
X165068381Y-88304666D02*
X164592190Y-88638000D01*
X165068381Y-88876095D02*
X164068381Y-88876095D01*
X164068381Y-88495142D01*
X164116000Y-88399904D01*
X164163619Y-88352285D01*
X164258857Y-88304666D01*
X164401714Y-88304666D01*
X164496952Y-88352285D01*
X164544571Y-88399904D01*
X164592190Y-88495142D01*
X164592190Y-88876095D01*
X165068381Y-87352285D02*
X165068381Y-87923714D01*
X165068381Y-87638000D02*
X164068381Y-87638000D01*
X164211238Y-87733238D01*
X164306476Y-87828476D01*
X164354095Y-87923714D01*
X173615334Y-60169381D02*
X173282000Y-59693190D01*
X173043905Y-60169381D02*
X173043905Y-59169381D01*
X173424858Y-59169381D01*
X173520096Y-59217000D01*
X173567715Y-59264619D01*
X173615334Y-59359857D01*
X173615334Y-59502714D01*
X173567715Y-59597952D01*
X173520096Y-59645571D01*
X173424858Y-59693190D01*
X173043905Y-59693190D01*
X173996286Y-59264619D02*
X174043905Y-59217000D01*
X174139143Y-59169381D01*
X174377239Y-59169381D01*
X174472477Y-59217000D01*
X174520096Y-59264619D01*
X174567715Y-59359857D01*
X174567715Y-59455095D01*
X174520096Y-59597952D01*
X173948667Y-60169381D01*
X174567715Y-60169381D01*
X173726334Y-64807381D02*
X173393000Y-64331190D01*
X173154905Y-64807381D02*
X173154905Y-63807381D01*
X173535858Y-63807381D01*
X173631096Y-63855000D01*
X173678715Y-63902619D01*
X173726334Y-63997857D01*
X173726334Y-64140714D01*
X173678715Y-64235952D01*
X173631096Y-64283571D01*
X173535858Y-64331190D01*
X173154905Y-64331190D01*
X174059667Y-63807381D02*
X174678715Y-63807381D01*
X174345381Y-64188333D01*
X174488239Y-64188333D01*
X174583477Y-64235952D01*
X174631096Y-64283571D01*
X174678715Y-64378810D01*
X174678715Y-64616905D01*
X174631096Y-64712143D01*
X174583477Y-64759762D01*
X174488239Y-64807381D01*
X174202524Y-64807381D01*
X174107286Y-64759762D01*
X174059667Y-64712143D01*
X124638905Y-80914381D02*
X124638905Y-79914381D01*
X125210334Y-80914381D02*
X124781762Y-80342952D01*
X125210334Y-79914381D02*
X124638905Y-80485810D01*
X126162715Y-80914381D02*
X125591286Y-80914381D01*
X125877000Y-80914381D02*
X125877000Y-79914381D01*
X125781762Y-80057238D01*
X125686524Y-80152476D01*
X125591286Y-80200095D01*
M02*
